<svg width="31" height="27" viewBox="0 0 31 27" fill="none" xmlns="http://www.w3.org/2000/svg">
<path d="M28 12.5V7C28 4.23858 25.7614 2 23 2H7C4.23858 2 2 4.23858 2 7V20C2 22.7614 4.23858 25 7 25H23C25.7614 25 28 22.7614 28 20V18" stroke="white" stroke-width="2.6"/>
<path d="M28 12.6571V12C28 9.23858 25.7614 7 23 7H7C4.23858 7 2 9.23858 2 12V20C2 22.7614 4.23858 25 7 25H23C25.7614 25 28 22.7614 28 20V19.3429" stroke="white" stroke-width="2.6"/>
<path d="M21.3 15.6591C21.3 14.3562 22.3562 13.3 23.6591 13.3H29.7V18.0182H23.6591C22.3562 18.0182 21.3 16.962 21.3 15.6591Z" stroke="white" stroke-width="2.6"/>
</svg>
