<svg width="24" height="24" viewBox="0 0 24 24" xmlns="http://www.w3.org/2000/svg">
<path d="M11.9998 16.0001C11.7662 16.0005 11.5397 15.9191 11.3598 15.7701L5.35981 10.7701C4.93455 10.4166 4.87635 9.78531 5.22981 9.36005C5.58327 8.9348 6.21455 8.87659 6.63981 9.23005L11.9998 13.7101L17.3598 9.39005C17.5664 9.22228 17.8314 9.14379 18.096 9.17194C18.3606 9.20009 18.6031 9.33257 18.7698 9.54005C18.9549 9.74791 19.0451 10.0235 19.0185 10.3006C18.9919 10.5777 18.8511 10.8312 18.6298 11.0001L12.6298 15.8301C12.4447 15.9556 12.2229 16.0154 11.9998 16.0001Z"/>
</svg>
