<svg width="46" height="46" viewBox="0 0 46 46"  xmlns="http://www.w3.org/2000/svg">
<path fill-rule="evenodd" clip-rule="evenodd" d="M31.1198 21.7802L29.9 23L31.1198 24.2198C31.7934 23.5461 31.7934 22.4539 31.1198 21.7802ZM27.4605 23L12.5802 37.8802C11.9066 38.5539 11.9066 39.6461 12.5802 40.3198C13.2539 40.9934 14.3461 40.9934 15.0198 40.3198L31.1198 24.2198C31.1198 24.2197 31.1198 24.2198 29.9 23C31.1198 21.7802 31.1198 21.7803 31.1198 21.7802L15.0198 5.68024C14.3461 5.00658 13.2539 5.00658 12.5802 5.68024C11.9066 6.35389 11.9066 7.4461 12.5802 8.11975L27.4605 23Z"/>
</svg>
