<svg width="20" height="20" viewBox="0 0 20 20" xmlns="http://www.w3.org/2000/svg">
<path fill-rule="evenodd" clip-rule="evenodd" d="M3.53033 2.46967C3.23744 2.17678 2.76256 2.17678 2.46967 2.46967C2.17678 2.76256 2.17678 3.23744 2.46967 3.53033L8.97639 10.037L2.47093 16.5425C2.17804 16.8354 2.17804 17.3103 2.47093 17.6032C2.76382 17.8961 3.2387 17.8961 3.53159 17.6032L10.037 11.0977L16.5425 17.6032C16.8354 17.8961 17.3103 17.8961 17.6032 17.6032C17.8961 17.3103 17.8961 16.8354 17.6032 16.5425L11.0977 10.037L17.6044 3.53033C17.8973 3.23744 17.8973 2.76256 17.6044 2.46967C17.3115 2.17678 16.8367 2.17678 16.5438 2.46967L10.037 8.97639L3.53033 2.46967Z" fill="white"/>
<path d="M3.53033 2.46967L4.23744 1.76256L4.23744 1.76256L3.53033 2.46967ZM2.46967 3.53033L1.76256 4.23744L1.76256 4.23744L2.46967 3.53033ZM8.97639 10.037L9.68349 10.7442L10.3906 10.037L9.68349 9.32994L8.97639 10.037ZM10.037 11.0977L10.7442 10.3906L10.037 9.6835L9.32994 10.3906L10.037 11.0977ZM11.0977 10.037L10.3906 9.32994L9.6835 10.037L10.3906 10.7442L11.0977 10.037ZM17.6044 3.53033L16.8973 2.82322V2.82322L17.6044 3.53033ZM17.6044 2.46967L16.8973 3.17678L16.8973 3.17678L17.6044 2.46967ZM16.5438 2.46967L17.2509 3.17678L17.2509 3.17678L16.5438 2.46967ZM10.037 8.97639L9.32994 9.68349L10.037 10.3906L10.7442 9.68349L10.037 8.97639ZM3.17678 3.17678C3.07915 3.27441 2.92085 3.27441 2.82322 3.17678L4.23744 1.76256C3.55402 1.07915 2.44598 1.07915 1.76256 1.76256L3.17678 3.17678ZM3.17678 2.82322C3.27441 2.92085 3.27441 3.07915 3.17678 3.17678L1.76256 1.76256C1.07915 2.44598 1.07915 3.55402 1.76256 4.23744L3.17678 2.82322ZM9.68349 9.32994L3.17678 2.82322L1.76256 4.23744L8.26928 10.7442L9.68349 9.32994ZM8.26928 9.32994L1.76382 15.8354L3.17804 17.2496L9.68349 10.7442L8.26928 9.32994ZM1.76382 15.8354C1.0804 16.5188 1.0804 17.6269 1.76382 18.3103L3.17804 16.8961C3.27567 16.9937 3.27567 17.152 3.17804 17.2496L1.76382 15.8354ZM1.76382 18.3103C2.44724 18.9937 3.55528 18.9937 4.2387 18.3103L2.82448 16.8961C2.92211 16.7984 3.0804 16.7984 3.17804 16.8961L1.76382 18.3103ZM4.2387 18.3103L10.7442 11.8048L9.32994 10.3906L2.82448 16.8961L4.2387 18.3103ZM17.2496 16.8961L10.7442 10.3906L9.32994 11.8048L15.8354 18.3103L17.2496 16.8961ZM16.8961 16.8961C16.9937 16.7984 17.152 16.7984 17.2496 16.8961L15.8354 18.3103C16.5188 18.9937 17.6269 18.9937 18.3103 18.3103L16.8961 16.8961ZM16.8961 17.2496C16.7984 17.152 16.7984 16.9937 16.8961 16.8961L18.3103 18.3103C18.9937 17.6269 18.9937 16.5188 18.3103 15.8354L16.8961 17.2496ZM10.3906 10.7442L16.8961 17.2496L18.3103 15.8354L11.8048 9.32994L10.3906 10.7442ZM11.8048 10.7442L18.3115 4.23744L16.8973 2.82322L10.3906 9.32994L11.8048 10.7442ZM18.3115 4.23744C18.995 3.55402 18.995 2.44598 18.3115 1.76256L16.8973 3.17678C16.7997 3.07915 16.7997 2.92085 16.8973 2.82322L18.3115 4.23744ZM18.3115 1.76256C17.6281 1.07915 16.5201 1.07915 15.8367 1.76256L17.2509 3.17678C17.1532 3.27441 16.995 3.27441 16.8973 3.17678L18.3115 1.76256ZM15.8367 1.76256L9.32994 8.26928L10.7442 9.68349L17.2509 3.17678L15.8367 1.76256ZM2.82322 3.17678L9.32994 9.68349L10.7442 8.26928L4.23744 1.76256L2.82322 3.17678Z" fill="white"/>
</svg>
