<svg width="69" height="69" viewBox="0 0 69 69" fill="none" xmlns="http://www.w3.org/2000/svg">
<mask id="path-1-inside-1_232_4922" fill="white">
<path fill-rule="evenodd" clip-rule="evenodd" d="M0.521912 35.0046L0.435207 33.2286C0.360668 31.7018 1.44609 30.3631 2.95535 30.1204L9.2496 29.1082C10.329 28.9347 11.2285 28.1877 11.5974 27.1586L13.2648 22.5067C13.5789 21.6307 13.4685 20.6585 12.9662 19.8751L9.81264 14.9568C9.01176 13.7077 9.24428 12.0608 10.3597 11.0823L12.209 9.4599C13.2609 8.53708 14.8111 8.46404 15.9451 9.28386L20.5735 12.63C21.3959 13.2245 22.4632 13.363 23.4101 12.998L27.7579 11.3221C28.6358 10.9837 29.304 10.2532 29.563 9.34875L31.3632 3.0626C31.7385 1.75176 32.9507 0.858947 34.3139 0.889229L36.7927 0.944296C38.2402 0.97645 39.4582 2.0378 39.6881 3.46727L40.5746 8.98057C40.7315 9.95593 41.3584 10.7916 42.251 11.2149L47.0739 13.5022C47.9829 13.9333 49.0474 13.8801 49.9089 13.3605L54.8868 10.3582C56.0733 9.64257 57.5955 9.8326 58.5696 10.8179L60.2674 12.5352C61.3697 13.6502 61.4275 15.4261 60.4 16.6104L57.246 20.2458C56.5335 21.067 56.3211 22.2093 56.6907 23.2317L58.508 28.2592C58.8357 29.1657 59.579 29.8596 60.5059 30.1241L66.4826 31.8303C67.7734 32.1988 68.6623 33.3799 68.6591 34.7223L68.6532 37.1711C68.6497 38.6413 67.5812 39.8924 66.1296 40.1258L60.1535 41.0868C59.1422 41.2494 58.2838 41.9167 57.8768 42.8566L55.8944 47.4343C55.5126 48.316 55.5762 49.3273 56.0655 50.1542L59.0237 55.1539C59.7043 56.3043 59.5419 57.7661 58.6253 58.7389L56.9844 60.4804C55.9752 61.5514 54.3381 61.7323 53.1193 60.9074L48.1011 57.5106C47.3508 57.0028 46.4113 56.8612 45.5448 57.1253L41.3126 58.4152C40.3148 58.7193 39.5466 59.5199 39.2839 60.5294L37.677 66.7049C37.3131 68.1034 36.0039 69.0437 34.5624 68.942L32.3738 68.7875C30.9838 68.6894 29.8443 67.6471 29.6231 66.2712L28.8061 61.191C28.6517 60.2303 28.0408 59.4042 27.1676 58.9749L22.3404 56.6022C21.4035 56.1416 20.2945 56.2013 19.4125 56.7596L14.3737 59.9492C13.1921 60.6971 11.6505 60.5295 10.6573 59.545L9.26777 58.1678C8.28461 57.1933 8.09583 55.6727 8.81087 54.4874L12.0655 49.0925C12.4975 48.3764 12.611 47.5124 12.3785 46.709L10.8716 41.5005C10.5826 40.5017 9.79711 39.7238 8.79561 39.4445L2.71248 37.7481C1.46758 37.4009 0.584932 36.2955 0.521912 35.0046ZM36.5955 46.6897C43.1388 45.6375 47.5903 39.4801 46.5381 32.9367C45.4859 26.3933 39.3285 21.9419 32.7851 22.9941C26.2418 24.0463 21.7903 30.2037 22.8425 36.747C23.8947 43.2904 30.0521 47.7419 36.5955 46.6897Z"/>
</mask>
<path fill-rule="evenodd" clip-rule="evenodd" d="M0.521912 35.0046L0.435207 33.2286C0.360668 31.7018 1.44609 30.3631 2.95535 30.1204L9.2496 29.1082C10.329 28.9347 11.2285 28.1877 11.5974 27.1586L13.2648 22.5067C13.5789 21.6307 13.4685 20.6585 12.9662 19.8751L9.81264 14.9568C9.01176 13.7077 9.24428 12.0608 10.3597 11.0823L12.209 9.4599C13.2609 8.53708 14.8111 8.46404 15.9451 9.28386L20.5735 12.63C21.3959 13.2245 22.4632 13.363 23.4101 12.998L27.7579 11.3221C28.6358 10.9837 29.304 10.2532 29.563 9.34875L31.3632 3.0626C31.7385 1.75176 32.9507 0.858947 34.3139 0.889229L36.7927 0.944296C38.2402 0.97645 39.4582 2.0378 39.6881 3.46727L40.5746 8.98057C40.7315 9.95593 41.3584 10.7916 42.251 11.2149L47.0739 13.5022C47.9829 13.9333 49.0474 13.8801 49.9089 13.3605L54.8868 10.3582C56.0733 9.64257 57.5955 9.8326 58.5696 10.8179L60.2674 12.5352C61.3697 13.6502 61.4275 15.4261 60.4 16.6104L57.246 20.2458C56.5335 21.067 56.3211 22.2093 56.6907 23.2317L58.508 28.2592C58.8357 29.1657 59.579 29.8596 60.5059 30.1241L66.4826 31.8303C67.7734 32.1988 68.6623 33.3799 68.6591 34.7223L68.6532 37.1711C68.6497 38.6413 67.5812 39.8924 66.1296 40.1258L60.1535 41.0868C59.1422 41.2494 58.2838 41.9167 57.8768 42.8566L55.8944 47.4343C55.5126 48.316 55.5762 49.3273 56.0655 50.1542L59.0237 55.1539C59.7043 56.3043 59.5419 57.7661 58.6253 58.7389L56.9844 60.4804C55.9752 61.5514 54.3381 61.7323 53.1193 60.9074L48.1011 57.5106C47.3508 57.0028 46.4113 56.8612 45.5448 57.1253L41.3126 58.4152C40.3148 58.7193 39.5466 59.5199 39.2839 60.5294L37.677 66.7049C37.3131 68.1034 36.0039 69.0437 34.5624 68.942L32.3738 68.7875C30.9838 68.6894 29.8443 67.6471 29.6231 66.2712L28.8061 61.191C28.6517 60.2303 28.0408 59.4042 27.1676 58.9749L22.3404 56.6022C21.4035 56.1416 20.2945 56.2013 19.4125 56.7596L14.3737 59.9492C13.1921 60.6971 11.6505 60.5295 10.6573 59.545L9.26777 58.1678C8.28461 57.1933 8.09583 55.6727 8.81087 54.4874L12.0655 49.0925C12.4975 48.3764 12.611 47.5124 12.3785 46.709L10.8716 41.5005C10.5826 40.5017 9.79711 39.7238 8.79561 39.4445L2.71248 37.7481C1.46758 37.4009 0.584932 36.2955 0.521912 35.0046ZM36.5955 46.6897C43.1388 45.6375 47.5903 39.4801 46.5381 32.9367C45.4859 26.3933 39.3285 21.9419 32.7851 22.9941C26.2418 24.0463 21.7903 30.2037 22.8425 36.747C23.8947 43.2904 30.0521 47.7419 36.5955 46.6897Z" fill="#FFED92"/>
<path d="M0.435207 33.2286L-2.06182 33.3505L0.435207 33.2286ZM0.521912 35.0046L3.01894 34.8827L0.521912 35.0046ZM11.5974 27.1586L13.9507 28.0022L11.5974 27.1586ZM13.2648 22.5067L15.6182 23.3503L15.6182 23.3503L13.2648 22.5067ZM12.9662 19.8751L15.0708 18.5257L15.0708 18.5257L12.9662 19.8751ZM9.81264 14.9568L11.9172 13.6074L11.9172 13.6074L9.81264 14.9568ZM10.3597 11.0823L8.71096 9.203L8.71095 9.203L10.3597 11.0823ZM12.209 9.4599L10.5603 7.58059L12.209 9.4599ZM15.9451 9.28386L14.4804 11.3099L14.4804 11.3099L15.9451 9.28386ZM20.5735 12.63L22.0382 10.604L22.0382 10.604L20.5735 12.63ZM23.4101 12.998L22.5109 10.6653L23.4101 12.998ZM27.7579 11.3221L28.6571 13.6548L27.7579 11.3221ZM29.563 9.34875L31.9664 10.037L31.9664 10.037L29.563 9.34875ZM31.3632 3.0626L33.7666 3.75084L33.7666 3.75084L31.3632 3.0626ZM34.3139 0.889229L34.3694 -1.61015L34.3139 0.889229ZM36.7927 0.944296L36.7372 3.44368L36.7927 0.944296ZM42.251 11.2149L43.3223 8.95605L43.3223 8.95605L42.251 11.2149ZM47.0739 13.5022L46.0026 15.7611L46.0026 15.7611L47.0739 13.5022ZM49.9089 13.3605L51.2 15.5013L51.2 15.5013L49.9089 13.3605ZM54.8868 10.3582L56.178 12.4989L54.8868 10.3582ZM58.5696 10.8179L60.3474 9.06028L60.3474 9.06028L58.5696 10.8179ZM60.2674 12.5352L58.4896 14.2929L58.4896 14.2929L60.2674 12.5352ZM60.4 16.6104L58.5117 14.9721L58.5117 14.9721L60.4 16.6104ZM57.246 20.2458L59.1343 21.8842L59.1343 21.8842L57.246 20.2458ZM56.6907 23.2317L59.0418 22.3818L59.0418 22.3818L56.6907 23.2317ZM58.508 28.2592L56.1569 29.1091L56.1569 29.1091L58.508 28.2592ZM60.5059 30.1241L61.1921 27.7202L60.5059 30.1241ZM66.4826 31.8303L67.1689 29.4264L66.4826 31.8303ZM68.6591 34.7223L66.1591 34.7163L66.1591 34.7163L68.6591 34.7223ZM68.6532 37.1711L71.1532 37.1771L68.6532 37.1711ZM57.8768 42.8566L60.1709 43.8501L60.1709 43.85L57.8768 42.8566ZM55.8944 47.4343L53.6003 46.4409L53.6003 46.4409L55.8944 47.4343ZM56.0655 50.1542L58.2171 48.8811L58.2171 48.8811L56.0655 50.1542ZM59.0237 55.1539L61.1753 53.8809L59.0237 55.1539ZM58.6253 58.7389L60.4448 60.4533L60.4448 60.4533L58.6253 58.7389ZM56.9844 60.4804L58.804 62.1948L56.9844 60.4804ZM53.1193 60.9074L54.5207 58.8371L54.5207 58.8371L53.1193 60.9074ZM48.1011 57.5106L46.6997 59.5809L46.6997 59.5809L48.1011 57.5106ZM45.5448 57.1253L44.8159 54.7339L44.8159 54.7339L45.5448 57.1253ZM41.3126 58.4152L42.0414 60.8066L42.0414 60.8066L41.3126 58.4152ZM39.2839 60.5294L41.7033 61.159L39.2839 60.5294ZM37.677 66.7049L35.2576 66.0753L35.2576 66.0753L37.677 66.7049ZM34.5624 68.942L34.7385 66.4482L34.7385 66.4482L34.5624 68.942ZM32.3738 68.7875L32.5498 66.2937L32.5498 66.2937L32.3738 68.7875ZM27.1676 58.9749L26.0648 61.2185L26.0648 61.2185L27.1676 58.9749ZM22.3404 56.6022L21.2376 58.8458L22.3404 56.6022ZM19.4125 56.7596L20.7496 58.872L19.4125 56.7596ZM14.3737 59.9492L15.7108 62.0615L15.7108 62.0615L14.3737 59.9492ZM10.6573 59.545L12.4172 57.7694L12.4172 57.7694L10.6573 59.545ZM9.26777 58.1678L7.50787 59.9434L9.26777 58.1678ZM8.81087 54.4874L6.67023 53.196L6.67023 53.1961L8.81087 54.4874ZM12.0655 49.0925L14.2061 50.3839L14.2061 50.3838L12.0655 49.0925ZM12.3785 46.709L9.97701 47.4039L9.97701 47.4039L12.3785 46.709ZM10.8716 41.5005L13.2731 40.8056L10.8716 41.5005ZM8.79561 39.4445L8.12405 41.8526L8.12406 41.8526L8.79561 39.4445ZM2.71248 37.7481L2.04092 40.1562L2.04092 40.1562L2.71248 37.7481ZM-2.06182 33.3505L-1.97511 35.1265L3.01894 34.8827L2.93223 33.1067L-2.06182 33.3505ZM2.55844 27.6521C-0.208536 28.097 -2.19847 30.5513 -2.06182 33.3505L2.93223 33.1067C2.91981 32.8522 3.10071 32.6291 3.35226 32.5887L2.55844 27.6521ZM8.85269 26.6399L2.55844 27.6521L3.35226 32.5887L9.64651 31.5765L8.85269 26.6399ZM9.24398 26.315C9.1825 26.4865 9.03258 26.611 8.85269 26.6399L9.64651 31.5765C11.6253 31.2583 13.2744 29.8889 13.9507 28.0022L9.24398 26.315ZM10.9115 21.6632L9.24398 26.315L13.9507 28.0022L15.6182 23.3503L10.9115 21.6632ZM10.8617 21.2246C10.9454 21.3551 10.9638 21.5171 10.9115 21.6632L15.6182 23.3503C16.1939 21.7443 15.9917 19.962 15.0708 18.5257L10.8617 21.2246ZM7.70809 16.3062L10.8617 21.2246L15.0708 18.5257L11.9172 13.6074L7.70809 16.3062ZM8.71095 9.203C6.6661 10.9969 6.23982 14.0162 7.7081 16.3062L11.9172 13.6074C11.7837 13.3992 11.8225 13.1247 12.0083 12.9616L8.71095 9.203ZM10.5603 7.58059L8.71096 9.203L12.0083 12.9616L13.8577 11.3392L10.5603 7.58059ZM17.4097 7.25786C15.3307 5.75485 12.4888 5.88876 10.5603 7.58059L13.8577 11.3392C14.033 11.1854 14.2914 11.1732 14.4804 11.3099L17.4097 7.25786ZM22.0382 10.604L17.4097 7.25786L14.4804 11.3099L19.1088 14.656L22.0382 10.604ZM22.5109 10.6653C22.3531 10.7261 22.1752 10.703 22.0382 10.604L19.1088 14.656C20.6166 15.746 22.5732 15.9999 24.3092 15.3307L22.5109 10.6653ZM26.8588 8.9894L22.5109 10.6653L24.3092 15.3307L28.6571 13.6548L26.8588 8.9894ZM27.1596 8.66051C27.1165 8.81125 27.0051 8.93301 26.8588 8.9894L28.6571 13.6548C30.2665 13.0345 31.4916 11.6951 31.9664 10.037L27.1596 8.66051ZM28.9598 2.37436L27.1596 8.66051L31.9664 10.037L33.7666 3.75084L28.9598 2.37436ZM34.3694 -1.61015C31.8702 -1.66567 29.6479 -0.0288418 28.9598 2.37436L33.7666 3.75084C33.8291 3.53237 34.0311 3.38357 34.2583 3.38861L34.3694 -1.61015ZM36.8483 -1.55509L34.3694 -1.61015L34.2583 3.38861L36.7372 3.44368L36.8483 -1.55509ZM42.1563 3.07036C41.7349 0.449672 39.5019 -1.49614 36.8483 -1.55509L36.7372 3.44368C36.9785 3.44904 37.1815 3.62593 37.2198 3.86417L42.1563 3.07036ZM43.0429 8.58366L42.1563 3.07036L37.2198 3.86417L38.1063 9.37748L43.0429 8.58366ZM43.3223 8.95605C43.1735 8.8855 43.069 8.74622 43.0429 8.58366L38.1063 9.37748C38.3939 11.1656 39.5433 12.6976 41.1797 13.4737L43.3223 8.95605ZM48.1452 11.2434L43.3223 8.95605L41.1797 13.4737L46.0026 15.7611L48.1452 11.2434ZM48.6177 11.2198C48.4741 11.3064 48.2967 11.3152 48.1452 11.2434L46.0026 15.7611C47.6691 16.5514 49.6207 16.4539 51.2 15.5013L48.6177 11.2198ZM53.5956 8.21741L48.6177 11.2198L51.2 15.5013L56.178 12.4989L53.5956 8.21741ZM60.3474 9.06028C58.5615 7.25385 55.7708 6.90547 53.5956 8.21741L56.178 12.4989C56.3757 12.3797 56.6294 12.4113 56.7918 12.5756L60.3474 9.06028ZM62.0452 10.7776L60.3474 9.06028L56.7918 12.5756L58.4896 14.2929L62.0452 10.7776ZM62.2884 18.2487C64.1722 16.0774 64.0662 12.8218 62.0452 10.7776L58.4896 14.2929C58.6733 14.4787 58.6829 14.7747 58.5117 14.9721L62.2884 18.2487ZM59.1343 21.8842L62.2884 18.2487L58.5117 14.9721L55.3576 18.6075L59.1343 21.8842ZM59.0418 22.3818C58.9802 22.2114 59.0156 22.021 59.1343 21.8842L55.3576 18.6075C54.0515 20.113 53.662 22.2072 54.3396 24.0816L59.0418 22.3818ZM60.8591 27.4094L59.0418 22.3818L54.3396 24.0816L56.1569 29.1091L60.8591 27.4094ZM61.1921 27.7202C61.0376 27.6761 60.9138 27.5604 60.8591 27.4094L56.1569 29.1091C56.7577 30.771 58.1204 32.043 59.8196 32.5281L61.1921 27.7202ZM67.1689 29.4264L61.1921 27.7202L59.8196 32.5281L65.7964 34.2343L67.1689 29.4264ZM71.1591 34.7283C71.165 32.2673 69.5354 30.1019 67.1689 29.4264L65.7964 34.2343C66.0115 34.2957 66.1597 34.4926 66.1591 34.7163L71.1591 34.7283ZM71.1532 37.1771L71.1591 34.7283L66.1591 34.7163L66.1533 37.1651L71.1532 37.1771ZM66.5265 42.5941C69.1878 42.1662 71.1468 39.8726 71.1532 37.1771L66.1533 37.1651C66.1527 37.4101 65.9746 37.6186 65.7326 37.6575L66.5265 42.5941ZM60.5504 43.5551L66.5265 42.5941L65.7326 37.6575L59.7566 38.6185L60.5504 43.5551ZM60.1709 43.85C60.2388 43.6934 60.3818 43.5822 60.5504 43.5551L59.7566 38.6185C57.9026 38.9166 56.3289 40.14 55.5827 41.8631L60.1709 43.85ZM58.1885 48.4278L60.1709 43.8501L55.5827 41.8631L53.6003 46.4409L58.1885 48.4278ZM58.2171 48.8811C58.1355 48.7433 58.1249 48.5748 58.1886 48.4278L53.6003 46.4409C52.9003 48.0573 53.0169 49.9112 53.9139 51.4272L58.2171 48.8811ZM61.1753 53.8809L58.2171 48.8811L53.9139 51.4272L56.8721 56.427L61.1753 53.8809ZM60.4448 60.4533C62.1252 58.6699 62.4231 55.9898 61.1753 53.8809L56.8721 56.427C56.9856 56.6187 56.9585 56.8623 56.8057 57.0245L60.4448 60.4533ZM58.804 62.1948L60.4448 60.4533L56.8057 57.0245L55.1649 58.7659L58.804 62.1948ZM51.718 62.9777C53.9523 64.4901 56.9537 64.1585 58.804 62.1948L55.1649 58.7659C54.9967 58.9444 54.7238 58.9746 54.5207 58.8371L51.718 62.9777ZM46.6997 59.5809L51.718 62.9777L54.5207 58.8371L49.5024 55.4403L46.6997 59.5809ZM46.2736 59.5167C46.4181 59.4727 46.5747 59.4963 46.6997 59.5809L49.5024 55.4403C48.127 54.5093 46.4046 54.2497 44.8159 54.7339L46.2736 59.5167ZM42.0414 60.8066L46.2736 59.5167L44.8159 54.7339L40.5837 56.0238L42.0414 60.8066ZM41.7033 61.159C41.7471 60.9907 41.8751 60.8573 42.0414 60.8066L40.5837 56.0238C38.7544 56.5814 37.346 58.0491 36.8644 59.8999L41.7033 61.159ZM40.0964 67.3345L41.7033 61.159L36.8645 59.8999L35.2576 66.0753L40.0964 67.3345ZM34.3864 71.4358C37.0291 71.6223 39.4293 69.8984 40.0964 67.3345L35.2576 66.0753C35.1969 66.3084 34.9787 66.4652 34.7385 66.4482L34.3864 71.4358ZM32.1978 71.2813L34.3864 71.4358L34.7385 66.4482L32.5498 66.2937L32.1978 71.2813ZM27.1548 66.6682C27.5604 69.1905 29.6494 71.1014 32.1978 71.2813L32.5498 66.2937C32.3181 66.2774 32.1282 66.1036 32.0914 65.8743L27.1548 66.6682ZM26.3378 61.5879L27.1548 66.6682L32.0914 65.8743L31.2744 60.7941L26.3378 61.5879ZM26.0648 61.2185C26.2103 61.2901 26.3121 61.4278 26.3378 61.5879L31.2744 60.7941C30.9912 59.0328 29.8714 57.5183 28.2704 56.7313L26.0648 61.2185ZM21.2376 58.8458L26.0648 61.2185L28.2704 56.7313L23.4432 54.3586L21.2376 58.8458ZM20.7496 58.872C20.8966 58.779 21.0814 58.769 21.2376 58.8458L23.4432 54.3586C21.7256 53.5143 19.6925 53.6236 18.0753 54.6473L20.7496 58.872ZM15.7108 62.0615L20.7496 58.872L18.0753 54.6473L13.0366 57.8368L15.7108 62.0615ZM8.89738 61.3206C10.7183 63.1254 13.5446 63.4327 15.7108 62.0615L13.0366 57.8368C12.8397 57.9614 12.5827 57.9335 12.4172 57.7694L8.89738 61.3206ZM7.50787 59.9434L8.89739 61.3206L12.4172 57.7694L11.0277 56.3922L7.50787 59.9434ZM6.67023 53.1961C5.35932 55.3691 5.70542 58.1569 7.50787 59.9434L11.0277 56.3922C10.8638 56.2298 10.8323 55.9764 10.9515 55.7788L6.67023 53.1961ZM9.92484 47.8011L6.67023 53.196L10.9515 55.7788L14.2061 50.3839L9.92484 47.8011ZM9.97701 47.4039C10.0157 47.5378 9.99684 47.6817 9.92484 47.8011L14.2061 50.3838C14.9981 49.071 15.2062 47.4871 14.78 46.0142L9.97701 47.4039ZM8.47004 42.1953L9.97701 47.4039L14.78 46.0142L13.2731 40.8056L8.47004 42.1953ZM8.12406 41.8526C8.29097 41.8992 8.42188 42.0288 8.47004 42.1953L13.2731 40.8056C12.7433 38.9746 11.3032 37.5484 9.46716 37.0364L8.12406 41.8526ZM2.04092 40.1562L8.12405 41.8526L9.46717 37.0364L3.38404 35.34L2.04092 40.1562ZM-1.97511 35.1265C-1.85958 37.4931 -0.241394 39.5197 2.04092 40.1562L3.38404 35.34C3.17655 35.2821 3.02944 35.0979 3.01894 34.8827L-1.97511 35.1265ZM44.0698 33.3336C44.9028 38.5138 41.3787 43.3884 36.1985 44.2214L36.9924 49.158C44.8989 47.8866 50.2778 40.4464 49.0064 32.5398L44.0698 33.3336ZM33.182 25.4624C38.3622 24.6294 43.2368 28.1535 44.0698 33.3336L49.0064 32.5398C47.735 24.6332 40.2948 19.2544 32.3882 20.5258L33.182 25.4624ZM25.3108 36.3501C24.4778 31.17 28.0019 26.2953 33.182 25.4624L32.3882 20.5258C24.4817 21.7972 19.1028 29.2374 20.3742 37.1439L25.3108 36.3501ZM36.1985 44.2214C31.0184 45.0544 26.1438 41.5303 25.3108 36.3501L20.3742 37.1439C21.6456 45.0505 29.0858 50.4294 36.9924 49.158L36.1985 44.2214Z" fill="black" mask="url(#path-1-inside-1_232_4922)"/>
</svg>
