<svg width="59" height="59" viewBox="0 0 59 59" fill="none" xmlns="http://www.w3.org/2000/svg">
<mask id="path-1-inside-1_232_4928" fill="white">
<path fill-rule="evenodd" clip-rule="evenodd" d="M0.337312 29.2986L0.290658 28.5343C0.19752 27.0085 1.26655 25.6566 2.77274 25.3956L7.42377 24.5894C8.50094 24.4027 9.39128 23.6448 9.7476 22.6113L10.9505 19.1222C11.2538 18.2424 11.1317 17.2717 10.6199 16.4944L8.23822 12.8778C7.42218 11.6386 7.63462 9.98895 8.73799 8.99693L9.72313 8.11119C10.7637 7.17563 12.3129 7.0837 13.4568 7.88965L16.9106 10.323C17.7402 10.9076 18.8091 11.033 19.7515 10.6565L22.9749 9.3687C23.8485 9.01966 24.5079 8.28101 24.7558 7.37349L26.0626 2.59052C26.422 1.27521 27.6232 0.367687 28.9866 0.381356L30.352 0.395045C31.7998 0.409559 33.0306 1.45599 33.2779 2.88255L33.9795 6.93049C34.1482 7.90387 34.7853 8.73179 35.683 9.14421L39.3498 10.8288C40.264 11.2488 41.3278 11.1827 42.1829 10.6526L45.8533 8.37741C47.0309 7.6474 48.5553 7.81886 49.5414 8.79225L50.4386 9.67793C51.5545 10.7794 51.6339 12.5544 50.6209 13.7512L48.4344 16.3343C47.732 17.1641 47.5335 18.3089 47.9155 19.3267L49.3302 23.0959C49.6689 23.9983 50.4206 24.683 51.3506 24.9363L55.8709 26.1673C57.1661 26.5201 58.0694 27.6903 58.0825 29.0326L58.0956 30.3711C58.11 31.8413 57.0568 33.1053 55.6081 33.3564L51.1864 34.1228C50.1773 34.2977 49.327 34.9754 48.9315 35.9202L47.4865 39.3717C47.1155 40.2579 47.1914 41.2683 47.6907 42.0892L49.948 45.8002C50.6425 46.9422 50.4979 48.4059 49.5932 49.3898L48.7184 50.3412C47.7223 51.4245 46.0875 51.6253 44.8588 50.8153L41.0806 48.3245C40.3243 47.8259 39.3831 47.6957 38.5199 47.9704L35.4006 48.9628C34.4066 49.279 33.6482 50.0889 33.3978 51.1015L32.2532 55.7312C31.9064 57.134 30.6088 58.0903 29.1662 58.0061L28.0533 57.9412C26.6622 57.86 25.5101 56.8316 25.2721 55.4586L24.6301 51.7547C24.464 50.7959 23.8431 49.9773 22.9647 49.5588L19.2964 47.8108C18.3539 47.3617 17.2458 47.4349 16.3706 48.004L12.656 50.4192C11.4836 51.1814 9.94006 51.0326 8.93493 50.0603L8.26491 49.4122C7.26995 48.4498 7.06266 46.9316 7.76321 45.7377L10.181 41.6172C10.6042 40.8959 10.7072 40.0306 10.465 39.2302L9.26653 35.2695C8.96542 34.2743 8.17052 33.506 7.16569 33.2389L2.56114 32.0151C1.3121 31.6832 0.416057 30.5886 0.337312 29.2986ZM31.6052 38.773C36.7748 37.877 40.2392 32.9598 39.3432 27.7901C38.4471 22.6205 33.5299 19.1561 28.3603 20.0521C23.1907 20.9482 19.7263 25.8654 20.6223 31.035C21.5184 36.2046 26.4356 39.6691 31.6052 38.773Z"/>
</mask>
<path fill-rule="evenodd" clip-rule="evenodd" d="M0.337312 29.2986L0.290658 28.5343C0.19752 27.0085 1.26655 25.6566 2.77274 25.3956L7.42377 24.5894C8.50094 24.4027 9.39128 23.6448 9.7476 22.6113L10.9505 19.1222C11.2538 18.2424 11.1317 17.2717 10.6199 16.4944L8.23822 12.8778C7.42218 11.6386 7.63462 9.98895 8.73799 8.99693L9.72313 8.11119C10.7637 7.17563 12.3129 7.0837 13.4568 7.88965L16.9106 10.323C17.7402 10.9076 18.8091 11.033 19.7515 10.6565L22.9749 9.3687C23.8485 9.01966 24.5079 8.28101 24.7558 7.37349L26.0626 2.59052C26.422 1.27521 27.6232 0.367687 28.9866 0.381356L30.352 0.395045C31.7998 0.409559 33.0306 1.45599 33.2779 2.88255L33.9795 6.93049C34.1482 7.90387 34.7853 8.73179 35.683 9.14421L39.3498 10.8288C40.264 11.2488 41.3278 11.1827 42.1829 10.6526L45.8533 8.37741C47.0309 7.6474 48.5553 7.81886 49.5414 8.79225L50.4386 9.67793C51.5545 10.7794 51.6339 12.5544 50.6209 13.7512L48.4344 16.3343C47.732 17.1641 47.5335 18.3089 47.9155 19.3267L49.3302 23.0959C49.6689 23.9983 50.4206 24.683 51.3506 24.9363L55.8709 26.1673C57.1661 26.5201 58.0694 27.6903 58.0825 29.0326L58.0956 30.3711C58.11 31.8413 57.0568 33.1053 55.6081 33.3564L51.1864 34.1228C50.1773 34.2977 49.327 34.9754 48.9315 35.9202L47.4865 39.3717C47.1155 40.2579 47.1914 41.2683 47.6907 42.0892L49.948 45.8002C50.6425 46.9422 50.4979 48.4059 49.5932 49.3898L48.7184 50.3412C47.7223 51.4245 46.0875 51.6253 44.8588 50.8153L41.0806 48.3245C40.3243 47.8259 39.3831 47.6957 38.5199 47.9704L35.4006 48.9628C34.4066 49.279 33.6482 50.0889 33.3978 51.1015L32.2532 55.7312C31.9064 57.134 30.6088 58.0903 29.1662 58.0061L28.0533 57.9412C26.6622 57.86 25.5101 56.8316 25.2721 55.4586L24.6301 51.7547C24.464 50.7959 23.8431 49.9773 22.9647 49.5588L19.2964 47.8108C18.3539 47.3617 17.2458 47.4349 16.3706 48.004L12.656 50.4192C11.4836 51.1814 9.94006 51.0326 8.93493 50.0603L8.26491 49.4122C7.26995 48.4498 7.06266 46.9316 7.76321 45.7377L10.181 41.6172C10.6042 40.8959 10.7072 40.0306 10.465 39.2302L9.26653 35.2695C8.96542 34.2743 8.17052 33.506 7.16569 33.2389L2.56114 32.0151C1.3121 31.6832 0.416057 30.5886 0.337312 29.2986ZM31.6052 38.773C36.7748 37.877 40.2392 32.9598 39.3432 27.7901C38.4471 22.6205 33.5299 19.1561 28.3603 20.0521C23.1907 20.9482 19.7263 25.8654 20.6223 31.035C21.5184 36.2046 26.4356 39.6691 31.6052 38.773Z" fill="#FFED92"/>
<path d="M0.290658 28.5343L-2.2047 28.6866L-2.2047 28.6866L0.290658 28.5343ZM0.337312 29.2986L2.83267 29.1463L2.83267 29.1463L0.337312 29.2986ZM2.77274 25.3956L2.34578 22.9323L2.77274 25.3956ZM7.42377 24.5894L7.85073 27.0527L7.42377 24.5894ZM9.7476 22.6113L12.1111 23.4261L12.1111 23.4261L9.7476 22.6113ZM10.9505 19.1222L13.314 19.937L13.314 19.937L10.9505 19.1222ZM10.6199 16.4944L8.53193 17.8694L8.53193 17.8694L10.6199 16.4944ZM8.23822 12.8778L10.3262 11.5028L10.3262 11.5028L8.23822 12.8778ZM8.73799 8.99693L7.06651 7.13785L8.73799 8.99693ZM9.72313 8.11119L8.05166 6.25211L8.05166 6.25211L9.72313 8.11119ZM13.4568 7.88965L12.0169 9.93335L12.0169 9.93335L13.4568 7.88965ZM16.9106 10.323L18.3505 8.27935L18.3505 8.27935L16.9106 10.323ZM19.7515 10.6565L20.679 12.9781L20.679 12.9781L19.7515 10.6565ZM22.9749 9.3687L22.0474 7.04712L22.0474 7.04712L22.9749 9.3687ZM24.7558 7.37349L22.3442 6.71458L22.3442 6.71458L24.7558 7.37349ZM26.0626 2.59052L28.4742 3.24942L28.4742 3.24942L26.0626 2.59052ZM28.9866 0.381356L28.9616 2.88123L28.9616 2.88123L28.9866 0.381356ZM30.352 0.395045L30.3771 -2.10483L30.3771 -2.10483L30.352 0.395045ZM33.2779 2.88255L30.8146 3.3095L33.2779 2.88255ZM33.9795 6.93049L36.4428 6.50354L33.9795 6.93049ZM35.683 9.14421L36.7267 6.87249L36.7267 6.87249L35.683 9.14421ZM39.3498 10.8288L38.3062 13.1006L38.3062 13.1006L39.3498 10.8288ZM42.1829 10.6526L43.5 12.7775L43.5 12.7775L42.1829 10.6526ZM45.8533 8.37741L47.1704 10.5023L47.1704 10.5023L45.8533 8.37741ZM49.5414 8.79225L51.2977 7.01307L51.2977 7.01307L49.5414 8.79225ZM50.4386 9.67793L48.6823 11.4571L48.6824 11.4571L50.4386 9.67793ZM50.6209 13.7512L52.5291 15.3664L52.5291 15.3664L50.6209 13.7512ZM48.4344 16.3343L50.3426 17.9495L50.3426 17.9495L48.4344 16.3343ZM47.9155 19.3267L50.2561 18.4482L50.2561 18.4482L47.9155 19.3267ZM49.3302 23.0959L51.6708 22.2174L51.6708 22.2174L49.3302 23.0959ZM51.3506 24.9363L52.0075 22.5241L52.0075 22.5241L51.3506 24.9363ZM55.8709 26.1673L56.5278 23.7552L56.5278 23.7552L55.8709 26.1673ZM58.0825 29.0326L55.5826 29.057L55.5826 29.057L58.0825 29.0326ZM58.0956 30.3711L60.5955 30.3466L60.5955 30.3466L58.0956 30.3711ZM55.6081 33.3564L55.1811 30.8931L55.6081 33.3564ZM51.1864 34.1228L51.6134 36.586L51.1864 34.1228ZM48.9315 35.9202L51.2376 36.8856L51.2376 36.8856L48.9315 35.9202ZM47.4865 39.3717L45.1805 38.4062L45.1805 38.4062L47.4865 39.3717ZM47.6907 42.0892L45.5548 43.3884L45.5548 43.3884L47.6907 42.0892ZM49.948 45.8002L52.0839 44.501L52.0839 44.501L49.948 45.8002ZM49.5932 49.3898L47.7529 47.6976L47.7529 47.6976L49.5932 49.3898ZM48.7184 50.3412L50.5587 52.0333L50.5587 52.0333L48.7184 50.3412ZM44.8588 50.8153L46.2349 48.7281L46.2349 48.7281L44.8588 50.8153ZM41.0806 48.3245L42.4567 46.2372L42.4567 46.2372L41.0806 48.3245ZM38.5199 47.9704L39.2778 50.3527L39.2778 50.3527L38.5199 47.9704ZM35.4006 48.9628L36.1586 51.3451L36.1586 51.3451L35.4006 48.9628ZM33.3978 51.1015L35.8248 51.7016L35.8248 51.7016L33.3978 51.1015ZM32.2532 55.7312L29.8263 55.1312L29.8263 55.1312L32.2532 55.7312ZM29.1662 58.0061L29.0205 60.5019L29.0205 60.5019L29.1662 58.0061ZM28.0533 57.9412L28.199 55.4454L28.1989 55.4454L28.0533 57.9412ZM22.9647 49.5588L24.0401 47.3019L24.0401 47.3019L22.9647 49.5588ZM19.2964 47.8108L20.3718 45.5539L20.3718 45.5539L19.2964 47.8108ZM16.3706 48.004L15.0078 45.908L15.0078 45.908L16.3706 48.004ZM12.656 50.4192L11.2932 48.3232L11.2932 48.3232L12.656 50.4192ZM8.93493 50.0603L10.6731 48.2634L10.6731 48.2634L8.93493 50.0603ZM8.26491 49.4122L6.52678 51.2092L6.52678 51.2092L8.26491 49.4122ZM7.76321 45.7377L5.60699 44.4725L5.60699 44.4725L7.76321 45.7377ZM10.181 41.6172L8.02476 40.352L8.02476 40.352L10.181 41.6172ZM10.465 39.2302L8.07209 39.9542L8.07209 39.9542L10.465 39.2302ZM9.26653 35.2695L6.87367 35.9935L6.87367 35.9935L9.26653 35.2695ZM7.16569 33.2389L6.52353 35.6551L6.52353 35.6551L7.16569 33.2389ZM2.56114 32.0151L1.91898 34.4312L1.91898 34.4312L2.56114 32.0151ZM-2.2047 28.6866L-2.15804 29.4509L2.83267 29.1463L2.78601 28.382L-2.2047 28.6866ZM2.34578 22.9323C-0.415568 23.4109 -2.37545 25.8893 -2.2047 28.6866L2.78601 28.382C2.77049 28.1277 2.94866 27.9024 3.19969 27.8588L2.34578 22.9323ZM6.99682 22.1261L2.34578 22.9323L3.19969 27.8588L7.85073 27.0527L6.99682 22.1261ZM7.38412 21.7965C7.32473 21.9687 7.17634 22.095 6.99682 22.1261L7.85073 27.0527C9.82554 26.7104 11.4578 25.321 12.1111 23.4261L7.38412 21.7965ZM8.58704 18.3073L7.38412 21.7965L12.1111 23.4261L13.314 19.937L8.58704 18.3073ZM8.53193 17.8694C8.61723 17.9989 8.63759 18.1607 8.58704 18.3073L13.314 19.937C13.8701 18.3241 13.6462 16.5444 12.7078 15.1195L8.53193 17.8694ZM6.15028 14.2527L8.53193 17.8694L12.7078 15.1195L10.3262 11.5028L6.15028 14.2527ZM7.06651 7.13785C5.04367 8.95656 4.65421 11.9808 6.15028 14.2527L10.3262 11.5028C10.1902 11.2963 10.2256 11.0213 10.4095 10.856L7.06651 7.13785ZM8.05166 6.25211L7.06651 7.13785L10.4095 10.856L11.3946 9.97027L8.05166 6.25211ZM14.8967 5.84595C12.7995 4.36839 9.95937 4.53691 8.05166 6.25211L11.3946 9.97027C11.568 9.81434 11.8262 9.79902 12.0169 9.93335L14.8967 5.84595ZM18.3505 8.27935L14.8967 5.84595L12.0169 9.93335L15.4707 12.3667L18.3505 8.27935ZM18.824 8.33493C18.6669 8.39768 18.4888 8.37677 18.3505 8.27935L15.4707 12.3667C16.9917 13.4383 18.9512 13.6683 20.679 12.9781L18.824 8.33493ZM22.0474 7.04712L18.824 8.33493L20.679 12.9781L23.9024 11.6903L22.0474 7.04712ZM22.3442 6.71458C22.3029 6.86584 22.193 6.98895 22.0474 7.04712L23.9024 11.6903C25.5041 11.0504 26.7128 9.69619 27.1674 8.03239L22.3442 6.71458ZM23.651 1.93162L22.3442 6.71458L27.1674 8.03239L28.4742 3.24942L23.651 1.93162ZM29.0117 -2.11852C26.512 -2.14358 24.3099 -0.479787 23.651 1.93162L28.4742 3.24942C28.5341 3.03021 28.7343 2.87895 28.9616 2.88123L29.0117 -2.11852ZM30.3771 -2.10483L29.0117 -2.11852L28.9616 2.88123L30.327 2.89492L30.3771 -2.10483ZM35.7411 2.45559C35.2878 -0.159761 33.0313 -2.07822 30.3771 -2.10483L30.327 2.89492C30.5683 2.89734 30.7734 3.07174 30.8146 3.3095L35.7411 2.45559ZM36.4428 6.50354L35.7411 2.45559L30.8146 3.3095L31.5162 7.35745L36.4428 6.50354ZM36.7267 6.87249C36.5771 6.80375 36.4709 6.66576 36.4428 6.50354L31.5162 7.35745C31.8255 9.14198 32.9936 10.6598 34.6393 11.4159L36.7267 6.87249ZM40.3935 8.55712L36.7267 6.87249L34.6393 11.4159L38.3062 13.1006L40.3935 8.55712ZM40.8657 8.52775C40.7232 8.61609 40.5459 8.62712 40.3935 8.55712L38.3062 13.1006C39.9821 13.8705 41.9324 13.7492 43.5 12.7775L40.8657 8.52775ZM44.5361 6.25254L40.8657 8.52775L43.5 12.7775L47.1704 10.5023L44.5361 6.25254ZM51.2977 7.01307C49.4899 5.22854 46.6952 4.91419 44.5361 6.25254L47.1704 10.5023C47.3667 10.3806 47.6208 10.4092 47.7851 10.5714L51.2977 7.01307ZM52.1949 7.89876L51.2977 7.01307L47.7851 10.5714L48.6823 11.4571L52.1949 7.89876ZM52.5291 15.3664C54.3863 13.1723 54.2406 9.91816 52.1949 7.89876L48.6824 11.4571C48.8683 11.6407 48.8816 11.9365 48.7127 12.136L52.5291 15.3664ZM50.3426 17.9495L52.5291 15.3664L48.7127 12.136L46.5262 14.7191L50.3426 17.9495ZM50.2561 18.4482C50.1924 18.2786 50.2255 18.0878 50.3426 17.9495L46.5262 14.7191C45.2385 16.2404 44.8746 18.3392 45.575 20.2052L50.2561 18.4482ZM51.6708 22.2174L50.2561 18.4482L45.575 20.2052L46.9896 23.9743L51.6708 22.2174ZM52.0075 22.5241C51.8525 22.4819 51.7272 22.3678 51.6708 22.2174L46.9896 23.9743C47.6105 25.6288 48.9886 26.8841 50.6937 27.3484L52.0075 22.5241ZM56.5278 23.7552L52.0075 22.5241L50.6937 27.3484L55.214 28.5795L56.5278 23.7552ZM60.5824 29.0081C60.5583 26.5472 58.9024 24.4018 56.5278 23.7552L55.214 28.5795C55.4299 28.6383 55.5804 28.8333 55.5826 29.057L60.5824 29.0081ZM60.5955 30.3466L60.5824 29.0081L55.5826 29.057L55.5957 30.3956L60.5955 30.3466ZM56.035 35.8197C58.6909 35.3593 60.6219 33.042 60.5955 30.3466L55.5957 30.3956C55.5981 30.6406 55.4226 30.8513 55.1811 30.8931L56.035 35.8197ZM51.6134 36.586L56.035 35.8197L55.1811 30.8931L50.7595 31.6595L51.6134 36.586ZM51.2376 36.8856C51.3035 36.7282 51.4452 36.6152 51.6134 36.586L50.7595 31.6595C48.9093 31.9802 47.3506 33.2226 46.6255 34.9547L51.2376 36.8856ZM49.7926 40.3371L51.2376 36.8856L46.6255 34.9547L45.1805 38.4062L49.7926 40.3371ZM49.8266 40.79C49.7434 40.6532 49.7308 40.4848 49.7926 40.3371L45.1805 38.4062C44.5002 40.0311 44.6394 41.8834 45.5548 43.3884L49.8266 40.79ZM52.0839 44.501L49.8266 40.79L45.5548 43.3884L47.812 47.0994L52.0839 44.501ZM51.4335 51.0819C53.0921 49.2781 53.3573 46.5946 52.0839 44.501L47.812 47.0994C47.9278 47.2897 47.9037 47.5337 47.7529 47.6976L51.4335 51.0819ZM50.5587 52.0333L51.4335 51.0819L47.7529 47.6976L46.8781 48.649L50.5587 52.0333ZM43.4828 52.9025C45.7354 54.3876 48.7325 54.0194 50.5587 52.0333L46.8781 48.649C46.7121 48.8296 46.4396 48.8631 46.2349 48.7281L43.4828 52.9025ZM39.7046 50.4117L43.4828 52.9025L46.2349 48.7281L42.4567 46.2372L39.7046 50.4117ZM39.2778 50.3527C39.4217 50.3069 39.5785 50.3286 39.7046 50.4117L42.4567 46.2372C41.07 45.3231 39.3446 45.0845 37.7619 45.588L39.2778 50.3527ZM36.1586 51.3451L39.2778 50.3527L37.7619 45.588L34.6427 46.5804L36.1586 51.3451ZM35.8248 51.7016C35.8665 51.5328 35.9929 51.3978 36.1586 51.3451L34.6427 46.5804C32.8203 47.1602 31.4299 48.645 30.9709 50.5015L35.8248 51.7016ZM34.6801 56.3312L35.8248 51.7016L30.9709 50.5015L29.8263 55.1312L34.6801 56.3312ZM29.0205 60.5019C31.6653 60.6562 34.0443 58.9031 34.6801 56.3312L29.8263 55.1312C29.7685 55.365 29.5522 55.5244 29.3118 55.5103L29.0205 60.5019ZM27.9077 60.4369L29.0205 60.5019L29.3118 55.5103L28.199 55.4454L27.9077 60.4369ZM22.8089 55.8856C23.2452 58.4028 25.3573 60.2881 27.9077 60.4369L28.1989 55.4454C27.9671 55.4319 27.7751 55.2605 27.7354 55.0317L22.8089 55.8856ZM22.1669 52.1816L22.8089 55.8856L27.7354 55.0317L27.0934 51.3277L22.1669 52.1816ZM21.8893 51.8156C22.0357 51.8854 22.1392 52.0218 22.1669 52.1816L27.0934 51.3277C26.7888 49.57 25.6505 48.0693 24.0401 47.3019L21.8893 51.8156ZM18.221 50.0677L21.8893 51.8156L24.0401 47.3019L20.3718 45.5539L18.221 50.0677ZM17.7333 50.0999C17.8792 50.005 18.0639 49.9928 18.221 50.0677L20.3718 45.5539C18.644 44.7306 16.6124 44.8647 15.0078 45.908L17.7333 50.0999ZM14.0188 52.5151L17.7333 50.0999L15.0078 45.908L11.2932 48.3232L14.0188 52.5151ZM7.1968 51.8573C9.03954 53.6397 11.8694 53.9126 14.0188 52.5151L11.2932 48.3232C11.0978 48.4503 10.8406 48.4255 10.6731 48.2634L7.1968 51.8573ZM6.52678 51.2092L7.1968 51.8573L10.6731 48.2634L10.003 47.6153L6.52678 51.2092ZM5.60699 44.4725C4.32266 46.6613 4.70269 49.4447 6.52678 51.2092L10.003 47.6153C9.83722 47.4549 9.80267 47.2019 9.91943 47.0029L5.60699 44.4725ZM8.02476 40.352L5.60699 44.4725L9.91943 47.0029L12.3372 42.8824L8.02476 40.352ZM8.07209 39.9542C8.11246 40.0876 8.0953 40.2318 8.02476 40.352L12.3372 42.8824C13.1132 41.56 13.3019 39.9737 12.8578 38.5061L8.07209 39.9542ZM6.87367 35.9935L8.07209 39.9542L12.8578 38.5061L11.6594 34.5454L6.87367 35.9935ZM6.52353 35.6551C6.691 35.6996 6.82349 35.8276 6.87367 35.9935L11.6594 34.5454C11.1074 32.721 9.65003 31.3124 7.80786 30.8228L6.52353 35.6551ZM1.91898 34.4312L6.52353 35.6551L7.80786 30.8228L3.20331 29.599L1.91898 34.4312ZM-2.15804 29.4509C-2.01368 31.8159 -0.370924 33.8226 1.91898 34.4312L3.20331 29.599C2.99513 29.5437 2.84579 29.3613 2.83267 29.1463L-2.15804 29.4509ZM36.8799 28.2171C37.5401 32.0263 34.9874 35.6495 31.1782 36.3097L32.0321 41.2363C38.5622 40.1044 42.9383 33.8932 41.8064 27.3632L36.8799 28.2171ZM28.7873 22.5154C32.5965 21.8552 36.2197 24.4079 36.8799 28.2171L41.8064 27.3632C40.6746 20.8331 34.4634 16.457 27.9334 17.5889L28.7873 22.5154ZM23.0856 30.608C22.4253 26.7988 24.9781 23.1757 28.7873 22.5154L27.9334 17.5889C21.4033 18.7207 17.0272 24.9319 18.159 31.462L23.0856 30.608ZM31.1782 36.3097C27.369 36.97 23.7458 34.4172 23.0856 30.608L18.159 31.462C19.2909 37.992 25.5021 42.3681 32.0321 41.2363L31.1782 36.3097Z" fill="black" mask="url(#path-1-inside-1_232_4928)"/>
</svg>
