<svg width="49" height="49" viewBox="0 0 49 49" fill="none" xmlns="http://www.w3.org/2000/svg">
<mask id="path-1-inside-1_232_4934" fill="white">
<path fill-rule="evenodd" clip-rule="evenodd" d="M2.97633 21.7305L6.14133 21.1143C7.21442 20.9054 8.08891 20.1293 8.42381 19.0886L9.17892 16.7422C9.46401 15.8563 9.32184 14.8883 8.79408 14.1218L7.17843 11.7753C6.33697 10.5532 6.51528 8.89961 7.59793 7.885L7.75291 7.73976C8.77394 6.7829 10.3209 6.659 11.4812 7.44115L13.777 8.98875C14.6185 9.55599 15.6898 9.65935 16.6242 9.26346L18.7482 8.3636C19.6144 7.99659 20.2583 7.24448 20.4875 6.33203L21.318 3.02499C21.6502 1.70254 22.8323 0.770397 24.1958 0.755902L24.4698 0.75299C25.9175 0.737598 27.1697 1.75838 27.4464 3.17953L27.9551 5.79282C28.1439 6.7625 28.798 7.57709 29.704 7.97088L32.2345 9.07072C33.1571 9.47173 34.2193 9.3836 35.0632 8.83602L37.4573 7.28267C38.6196 6.52849 40.1472 6.66843 41.1532 7.62124L41.2475 7.71061C42.3859 8.78882 42.502 10.5618 41.5139 11.7792L40.2633 13.3202C39.5782 14.1643 39.4034 15.3129 39.8063 16.3226L40.8191 18.8605C41.1764 19.7558 41.9421 20.4248 42.8771 20.6588L45.9672 21.4322C47.2694 21.7581 48.1967 22.9094 48.2375 24.2511L48.2452 24.5019C48.2899 25.9715 47.263 27.2569 45.8198 27.5379L42.9203 28.1024C41.9149 28.2981 41.0789 28.9932 40.703 29.946L39.778 32.2903C39.4253 33.184 39.5221 34.1926 40.0382 35.003L41.6001 37.4553C42.3181 38.5827 42.2038 40.049 41.3196 41.0514L41.1777 41.2123C40.2042 42.3159 38.5739 42.5505 37.3287 41.766L34.7719 40.1552C34.0054 39.6723 33.0618 39.5616 32.2044 39.854L30.1737 40.5466C29.1864 40.8833 28.4449 41.7087 28.2155 42.7263L27.5141 45.8379C27.1963 47.2476 25.9187 48.2304 24.4747 48.176L24.4175 48.1739C23.025 48.1215 21.8519 47.1171 21.5856 45.7493L21.1269 43.3927C20.9409 42.4376 20.3033 41.632 19.4164 41.2316L16.8873 40.09C15.9358 39.6605 14.8294 39.7565 13.9661 40.3436L11.5143 42.0108C10.3753 42.7853 8.85222 42.6701 7.84262 41.7331C6.84323 40.8056 6.60821 39.3147 7.2738 38.1248L8.89474 35.2267C9.303 34.4968 9.38804 33.6296 9.12935 32.8343L8.23855 30.0957C7.91695 29.1069 7.10635 28.3552 6.09622 28.109L2.84547 27.3165C1.64842 27.0247 0.772801 25.999 0.672345 24.771C0.553526 23.3185 1.54585 22.009 2.97633 21.7305ZM25.9515 31.9688C30.0173 31.1772 32.6716 27.2396 31.88 23.1738C31.0885 19.108 27.1508 16.4536 23.085 17.2452C19.0192 18.0367 16.3649 21.9744 17.1565 26.0402C17.948 30.106 21.8857 32.7603 25.9515 31.9688Z"/>
</mask>
<path fill-rule="evenodd" clip-rule="evenodd" d="M2.97633 21.7305L6.14133 21.1143C7.21442 20.9054 8.08891 20.1293 8.42381 19.0886L9.17892 16.7422C9.46401 15.8563 9.32184 14.8883 8.79408 14.1218L7.17843 11.7753C6.33697 10.5532 6.51528 8.89961 7.59793 7.885L7.75291 7.73976C8.77394 6.7829 10.3209 6.659 11.4812 7.44115L13.777 8.98875C14.6185 9.55599 15.6898 9.65935 16.6242 9.26346L18.7482 8.3636C19.6144 7.99659 20.2583 7.24448 20.4875 6.33203L21.318 3.02499C21.6502 1.70254 22.8323 0.770397 24.1958 0.755902L24.4698 0.75299C25.9175 0.737598 27.1697 1.75838 27.4464 3.17953L27.9551 5.79282C28.1439 6.7625 28.798 7.57709 29.704 7.97088L32.2345 9.07072C33.1571 9.47173 34.2193 9.3836 35.0632 8.83602L37.4573 7.28267C38.6196 6.52849 40.1472 6.66843 41.1532 7.62124L41.2475 7.71061C42.3859 8.78882 42.502 10.5618 41.5139 11.7792L40.2633 13.3202C39.5782 14.1643 39.4034 15.3129 39.8063 16.3226L40.8191 18.8605C41.1764 19.7558 41.9421 20.4248 42.8771 20.6588L45.9672 21.4322C47.2694 21.7581 48.1967 22.9094 48.2375 24.2511L48.2452 24.5019C48.2899 25.9715 47.263 27.2569 45.8198 27.5379L42.9203 28.1024C41.9149 28.2981 41.0789 28.9932 40.703 29.946L39.778 32.2903C39.4253 33.184 39.5221 34.1926 40.0382 35.003L41.6001 37.4553C42.3181 38.5827 42.2038 40.049 41.3196 41.0514L41.1777 41.2123C40.2042 42.3159 38.5739 42.5505 37.3287 41.766L34.7719 40.1552C34.0054 39.6723 33.0618 39.5616 32.2044 39.854L30.1737 40.5466C29.1864 40.8833 28.4449 41.7087 28.2155 42.7263L27.5141 45.8379C27.1963 47.2476 25.9187 48.2304 24.4747 48.176L24.4175 48.1739C23.025 48.1215 21.8519 47.1171 21.5856 45.7493L21.1269 43.3927C20.9409 42.4376 20.3033 41.632 19.4164 41.2316L16.8873 40.09C15.9358 39.6605 14.8294 39.7565 13.9661 40.3436L11.5143 42.0108C10.3753 42.7853 8.85222 42.6701 7.84262 41.7331C6.84323 40.8056 6.60821 39.3147 7.2738 38.1248L8.89474 35.2267C9.303 34.4968 9.38804 33.6296 9.12935 32.8343L8.23855 30.0957C7.91695 29.1069 7.10635 28.3552 6.09622 28.109L2.84547 27.3165C1.64842 27.0247 0.772801 25.999 0.672345 24.771C0.553526 23.3185 1.54585 22.009 2.97633 21.7305ZM25.9515 31.9688C30.0173 31.1772 32.6716 27.2396 31.88 23.1738C31.0885 19.108 27.1508 16.4536 23.085 17.2452C19.0192 18.0367 16.3649 21.9744 17.1565 26.0402C17.948 30.106 21.8857 32.7603 25.9515 31.9688Z" fill="#FFED92"/>
<path d="M6.14133 21.1143L5.66359 18.6604L6.14133 21.1143ZM2.97633 21.7305L3.45407 24.1844L2.97633 21.7305ZM8.42381 19.0886L10.8036 19.8545L10.8036 19.8545L8.42381 19.0886ZM9.17892 16.7422L11.5587 17.508L11.5587 17.508L9.17892 16.7422ZM8.79408 14.1218L10.8532 12.704L10.8532 12.704L8.79408 14.1218ZM7.17843 11.7753L9.23753 10.3575L9.23753 10.3575L7.17843 11.7753ZM7.59793 7.885L9.30745 9.70916L9.30745 9.70916L7.59793 7.885ZM7.75291 7.73976L6.0434 5.9156L6.04339 5.91561L7.75291 7.73976ZM11.4812 7.44115L12.8786 5.36814L11.4812 7.44115ZM13.777 8.98875L12.3797 11.0618L12.3797 11.0618L13.777 8.98875ZM16.6242 9.26346L17.5995 11.5654L17.5995 11.5654L16.6242 9.26346ZM18.7482 8.3636L17.7729 6.06167L17.7729 6.06167L18.7482 8.3636ZM20.4875 6.33203L18.0628 5.72308L18.0628 5.72308L20.4875 6.33203ZM21.318 3.02499L23.7427 3.63394L23.7427 3.63394L21.318 3.02499ZM24.1958 0.755902L24.2224 3.25576L24.2224 3.25576L24.1958 0.755902ZM24.4698 0.75299L24.4963 3.25285L24.4963 3.25285L24.4698 0.75299ZM27.4464 3.17953L29.9003 2.70179L27.4464 3.17953ZM27.9551 5.79282L25.5012 6.27056L27.9551 5.79282ZM29.704 7.97088L30.7005 5.67808L30.7005 5.67808L29.704 7.97088ZM32.2345 9.07072L31.2379 11.3635L31.2379 11.3635L32.2345 9.07072ZM35.0632 8.83602L36.424 10.9332L35.0632 8.83602ZM37.4573 7.28267L36.0965 5.18546L36.0965 5.18546L37.4573 7.28267ZM41.1532 7.62124L39.434 9.43631L39.434 9.43631L41.1532 7.62124ZM41.2475 7.71061L42.9667 5.89554L42.9667 5.89554L41.2475 7.71061ZM41.5139 11.7792L43.455 13.3546L43.455 13.3546L41.5139 11.7792ZM40.2633 13.3202L42.2044 14.8956L42.2044 14.8956L40.2633 13.3202ZM39.8063 16.3226L37.4844 17.2492L37.4844 17.2492L39.8063 16.3226ZM40.8191 18.8605L43.1411 17.9339L43.1411 17.9339L40.8191 18.8605ZM42.8771 20.6588L42.2702 23.084L42.2702 23.084L42.8771 20.6588ZM45.9672 21.4322L45.3603 23.8574L45.3603 23.8574L45.9672 21.4322ZM48.2375 24.2511L50.7364 24.175L50.7364 24.175L48.2375 24.2511ZM48.2452 24.5019L45.7463 24.578L45.7463 24.578L48.2452 24.5019ZM40.703 29.946L43.0285 30.8636L43.0285 30.8636L40.703 29.946ZM39.778 32.2903L37.4524 31.3727L37.4524 31.3727L39.778 32.2903ZM40.0382 35.003L42.1469 33.66L42.1469 33.66L40.0382 35.003ZM41.6001 37.4553L43.7087 36.1123L43.7087 36.1123L41.6001 37.4553ZM41.3196 41.0514L39.4447 39.3977L39.4447 39.3977L41.3196 41.0514ZM41.1777 41.2123L43.0526 42.866L43.0526 42.866L41.1777 41.2123ZM37.3287 41.766L35.9961 43.8812L35.9961 43.8812L37.3287 41.766ZM34.7719 40.1552L33.4393 42.2704L33.4393 42.2704L34.7719 40.1552ZM32.2044 39.854L33.0114 42.2202L33.0114 42.2202L32.2044 39.854ZM30.1737 40.5466L29.3667 38.1804L29.3667 38.1804L30.1737 40.5466ZM28.2155 42.7263L30.6543 43.276L30.6543 43.276L28.2155 42.7263ZM27.5141 45.8379L25.0753 45.2881L25.0753 45.2881L27.5141 45.8379ZM24.4747 48.176L24.5687 45.6778L24.5686 45.6778L24.4747 48.176ZM24.4175 48.1739L24.3235 50.6721L24.3236 50.6721L24.4175 48.1739ZM19.4164 41.2316L20.445 38.953L20.445 38.953L19.4164 41.2316ZM16.8873 40.09L17.9159 37.8114L17.9159 37.8114L16.8873 40.09ZM13.9661 40.3436L15.3719 42.4109L15.3719 42.4109L13.9661 40.3436ZM11.5143 42.0108L10.1086 39.9434L10.1086 39.9434L11.5143 42.0108ZM7.84262 41.7331L9.54326 39.9007L9.54326 39.9007L7.84262 41.7331ZM7.2738 38.1248L5.09191 36.9044L5.09191 36.9044L7.2738 38.1248ZM8.89474 35.2267L11.0766 36.4471L11.0766 36.4471L8.89474 35.2267ZM9.12935 32.8343L11.5067 32.061L11.5067 32.061L9.12935 32.8343ZM8.23855 30.0957L10.616 29.3224L10.6159 29.3224L8.23855 30.0957ZM6.09622 28.109L6.68835 25.6801L6.68834 25.6801L6.09622 28.109ZM2.84547 27.3165L3.43759 24.8876L3.43759 24.8876L2.84547 27.3165ZM0.672345 24.771L-1.81933 24.9748L-1.81933 24.9748L0.672345 24.771ZM5.66359 18.6604L2.49858 19.2766L3.45407 24.1844L6.61907 23.5682L5.66359 18.6604ZM6.044 18.3228C5.98819 18.4962 5.84244 18.6256 5.66359 18.6604L6.61907 23.5682C8.5864 23.1852 10.1896 21.7624 10.8036 19.8545L6.044 18.3228ZM6.79912 15.9763L6.044 18.3228L10.8036 19.8545L11.5587 17.508L6.79912 15.9763ZM6.73498 15.5396C6.82294 15.6673 6.84663 15.8287 6.79912 15.9763L11.5587 17.508C12.0814 15.8839 11.8207 14.1092 10.8532 12.704L6.73498 15.5396ZM5.11933 13.1931L6.73498 15.5396L10.8532 12.704L9.23753 10.3575L5.11933 13.1931ZM5.88841 6.06084C3.90357 7.92095 3.57665 10.9526 5.11933 13.1931L9.23753 10.3575C9.09729 10.1539 9.127 9.87826 9.30745 9.70916L5.88841 6.06084ZM6.04339 5.91561L5.88841 6.06085L9.30745 9.70916L9.46243 9.56392L6.04339 5.91561ZM12.8786 5.36814C10.7513 3.93421 7.91528 4.16136 6.0434 5.9156L9.46243 9.56392C9.6326 9.40444 9.89042 9.38379 10.0838 9.51415L12.8786 5.36814ZM15.1744 6.91575L12.8786 5.36814L10.0838 9.51415L12.3797 11.0618L15.1744 6.91575ZM15.6489 6.96153C15.4932 7.02751 15.3147 7.01028 15.1744 6.91574L12.3797 11.0618C13.9224 12.1017 15.8863 12.2912 17.5995 11.5654L15.6489 6.96153ZM17.7729 6.06167L15.6489 6.96153L17.5995 11.5654L19.7234 10.6655L17.7729 6.06167ZM18.0628 5.72308C18.0246 5.87515 17.9173 6.0005 17.7729 6.06167L19.7234 10.6655C21.3115 9.99268 22.4921 8.61381 22.9122 6.94098L18.0628 5.72308ZM18.8933 2.41604L18.0628 5.72308L22.9122 6.94099L23.7427 3.63394L18.8933 2.41604ZM24.1692 -1.74396C21.6696 -1.71738 19.5022 -0.00845803 18.8933 2.41604L23.7427 3.63394C23.7981 3.41353 23.9951 3.25818 24.2224 3.25576L24.1692 -1.74396ZM24.4432 -1.74687L24.1692 -1.74396L24.2224 3.25576L24.4963 3.25285L24.4432 -1.74687ZM29.9003 2.70179C29.3931 0.096353 27.0974 -1.77509 24.4432 -1.74687L24.4963 3.25285C24.7376 3.25028 24.9463 3.42041 24.9924 3.65727L29.9003 2.70179ZM30.4091 5.31507L29.9003 2.70179L24.9924 3.65727L25.5012 6.27056L30.4091 5.31507ZM30.7005 5.67808C30.5495 5.61245 30.4405 5.47668 30.4091 5.31507L25.5012 6.27056C25.8473 8.04831 27.0464 9.54173 28.7075 10.2637L30.7005 5.67808ZM33.231 6.77792L30.7005 5.67808L28.7075 10.2637L31.2379 11.3635L33.231 6.77792ZM33.7025 6.73881C33.5618 6.83007 33.3848 6.84476 33.231 6.77792L31.2379 11.3635C32.9294 12.0987 34.8768 11.9371 36.424 10.9332L33.7025 6.73881ZM36.0965 5.18546L33.7025 6.73881L36.424 10.9332L38.818 9.37988L36.0965 5.18546ZM42.8723 5.80617C41.0281 4.05936 38.2274 3.8028 36.0965 5.18546L38.818 9.37989C39.0118 9.25419 39.2664 9.27751 39.434 9.43631L42.8723 5.80617ZM42.9667 5.89554L42.8723 5.80617L39.434 9.43631L39.5284 9.52568L42.9667 5.89554ZM43.455 13.3546C45.2665 11.1227 45.0537 7.87226 42.9667 5.89554L39.5284 9.52568C39.7181 9.70538 39.7374 10.0009 39.5728 10.2038L43.455 13.3546ZM42.2044 14.8956L43.455 13.3546L39.5728 10.2038L38.3221 11.7447L42.2044 14.8956ZM42.1283 15.396C42.0611 15.2277 42.0902 15.0363 42.2044 14.8956L38.3221 11.7447C37.0662 13.2922 36.7457 15.3981 37.4844 17.2492L42.1283 15.396ZM43.1411 17.9339L42.1283 15.396L37.4844 17.2492L38.4972 19.7872L43.1411 17.9339ZM43.4841 18.2336C43.3282 18.1946 43.2006 18.0831 43.1411 17.9339L38.4972 19.7872C39.1522 21.4284 40.5559 22.655 42.2702 23.084L43.4841 18.2336ZM46.5742 19.007L43.4841 18.2336L42.2702 23.084L45.3603 23.8574L46.5742 19.007ZM50.7364 24.175C50.6615 21.7152 48.9616 19.6045 46.5742 19.007L45.3603 23.8574C45.5773 23.9117 45.7319 24.1036 45.7387 24.3272L50.7364 24.175ZM50.744 24.4258L50.7364 24.175L45.7387 24.3272L45.7463 24.578L50.744 24.4258ZM46.2976 29.9918C48.9434 29.4767 50.826 27.12 50.744 24.4258L45.7463 24.578C45.7538 24.8229 45.5826 25.0371 45.3421 25.084L46.2976 29.9918ZM43.398 30.5563L46.2976 29.9918L45.3421 25.084L42.4425 25.6485L43.398 30.5563ZM43.0285 30.8636C43.0911 30.7048 43.2305 30.589 43.398 30.5563L42.4425 25.6485C40.5994 26.0073 39.0667 27.2817 38.3775 29.0284L43.0285 30.8636ZM42.1035 33.2079L43.0285 30.8636L38.3775 29.0284L37.4524 31.3727L42.1035 33.2079ZM42.1469 33.66C42.0608 33.5249 42.0447 33.3568 42.1035 33.2079L37.4524 31.3727C36.8059 33.0112 36.9833 34.8603 37.9296 36.346L42.1469 33.66ZM43.7087 36.1123L42.1469 33.66L37.9296 36.346L39.4915 38.7983L43.7087 36.1123ZM43.1944 42.7052C44.8154 40.8675 45.0251 38.1791 43.7087 36.1123L39.4915 38.7983C39.6112 38.9862 39.5921 39.2306 39.4447 39.3977L43.1944 42.7052ZM43.0526 42.866L43.1945 42.7052L39.4447 39.3977L39.3028 39.5585L43.0526 42.866ZM35.9961 43.8812C38.2789 45.3194 41.2678 44.8894 43.0526 42.866L39.3029 39.5585C39.1406 39.7425 38.8689 39.7815 38.6614 39.6508L35.9961 43.8812ZM33.4393 42.2704L35.9961 43.8812L38.6614 39.6508L36.1045 38.0399L33.4393 42.2704ZM33.0114 42.2202C33.1543 42.1714 33.3115 42.1899 33.4393 42.2704L36.1045 38.0399C34.6993 37.1546 32.9693 36.9517 31.3974 37.4878L33.0114 42.2202ZM30.9807 42.9127L33.0114 42.2202L31.3974 37.4878L29.3667 38.1804L30.9807 42.9127ZM30.6543 43.276C30.6926 43.1064 30.8162 42.9689 30.9807 42.9127L29.3667 38.1804C27.5567 38.7977 26.1973 40.3109 25.7767 42.1765L30.6543 43.276ZM29.9529 46.3876L30.6543 43.276L25.7767 42.1765L25.0753 45.2881L29.9529 46.3876ZM24.3806 50.6743C27.028 50.7739 29.3703 48.9721 29.9529 46.3876L25.0753 45.2881C25.0223 45.523 24.8094 45.6869 24.5687 45.6778L24.3806 50.6743ZM24.3236 50.6721L24.3808 50.6743L24.5686 45.6778L24.5114 45.6756L24.3236 50.6721ZM19.1317 46.227C19.6199 48.7347 21.7706 50.576 24.3235 50.6721L24.5116 45.6756C24.2795 45.6669 24.084 45.4995 24.0396 45.2715L19.1317 46.227ZM18.6729 43.8704L19.1317 46.227L24.0396 45.2715L23.5808 42.9149L18.6729 43.8704ZM18.3879 43.5103C18.5357 43.577 18.6419 43.7112 18.6729 43.8704L23.5808 42.9149C23.2399 41.1639 22.0709 39.687 20.445 38.953L18.3879 43.5103ZM15.8588 42.3686L18.3879 43.5103L20.445 38.953L17.9159 37.8114L15.8588 42.3686ZM15.3719 42.4109C15.5158 42.313 15.7002 42.297 15.8588 42.3686L17.9159 37.8114C16.1714 37.024 14.1431 37.2 12.5604 38.2762L15.3719 42.4109ZM12.9201 44.0781L15.3719 42.4109L12.5604 38.2762L10.1086 39.9434L12.9201 44.0781ZM6.14197 43.5656C8.00574 45.2953 10.8174 45.5079 12.9201 44.0781L10.1086 39.9434C9.93321 40.0627 9.69871 40.045 9.54326 39.9007L6.14197 43.5656ZM5.09191 36.9044C3.86321 39.1011 4.29707 41.8533 6.14197 43.5656L9.54326 39.9007C9.3894 39.7579 9.35321 39.5284 9.45569 39.3451L5.09191 36.9044ZM6.71285 34.0063L5.09191 36.9044L9.45569 39.3451L11.0766 36.4471L6.71285 34.0063ZM6.75195 33.6076C6.79507 33.7402 6.78089 33.8847 6.71285 34.0063L11.0766 36.4471C11.8251 35.109 11.981 33.5191 11.5067 32.061L6.75195 33.6076ZM5.86116 30.869L6.75195 33.6076L11.5067 32.061L10.616 29.3224L5.86116 30.869ZM5.5041 30.5378C5.67245 30.5789 5.80755 30.7042 5.86116 30.869L10.6159 29.3224C10.0263 27.5097 8.54024 26.1316 6.68835 25.6801L5.5041 30.5378ZM2.25335 29.7454L5.5041 30.5378L6.68834 25.6801L3.43759 24.8876L2.25335 29.7454ZM-1.81933 24.9748C-1.63107 27.2763 0.00993482 29.1984 2.25335 29.7454L3.43759 24.8876C3.2869 24.8509 3.17667 24.7218 3.16402 24.5672L-1.81933 24.9748ZM2.49858 19.2766C-0.182291 19.7985 -2.04201 22.2527 -1.81933 24.9748L3.16402 24.5672C3.14906 24.3843 3.27399 24.2195 3.45407 24.1844L2.49858 19.2766ZM29.4261 23.6515C29.9538 26.362 28.1843 28.9871 25.4737 29.5148L26.4292 34.4227C31.8503 33.3673 35.3894 28.1171 34.334 22.696L29.4261 23.6515ZM23.5628 19.6991C26.2733 19.1714 28.8984 20.941 29.4261 23.6515L34.334 22.696C33.2786 17.2749 28.0284 13.7359 22.6073 14.7913L23.5628 19.6991ZM19.6104 25.5625C19.0827 22.8519 20.8522 20.2268 23.5628 19.6991L22.6073 14.7913C17.1862 15.8467 13.6471 21.0969 14.7025 26.5179L19.6104 25.5625ZM25.4737 29.5148C22.7632 30.0425 20.1381 28.273 19.6104 25.5625L14.7025 26.5179C15.7579 31.939 21.0082 35.4781 26.4292 34.4227L25.4737 29.5148Z" fill="black" mask="url(#path-1-inside-1_232_4934)"/>
</svg>
