<svg width="12" height="21" viewBox="0 0 12 21" fill="none" xmlns="http://www.w3.org/2000/svg">
<path d="M7.05464 11.2329V19.8566H4.38281V11.2329V10.7329H3.88281H1.3125V8.17724H3.88281H4.38281V7.67724V5.05504C4.38281 3.63688 4.81352 2.60086 5.50291 1.91948C6.19385 1.23657 7.20018 0.85498 8.45602 0.85498C9.37392 0.85498 10.1963 0.904103 10.6996 0.946667V3.17546L9.31687 3.17609C9.31679 3.17609 9.31672 3.17609 9.31664 3.17609C8.51196 3.17612 7.89264 3.36673 7.49964 3.83351C7.12284 4.28104 7.05465 4.87097 7.05465 5.4071V7.67724V8.17724H7.55465H10.507L10.1775 10.7329H7.55464H7.05464V11.2329Z" fill="white" stroke="white"/>
</svg>
