<svg width="24" height="24" viewBox="0 0 24 24" fill="none" xmlns="http://www.w3.org/2000/svg">
<path d="M18.7401 2.8575L18.7402 2.85745L18.7337 2.85507C18.0208 2.5913 17.2681 2.45126 16.508 2.441C15.3291 2.38726 14.9629 2.37619 11.9962 2.37619C9.02923 2.37619 8.66335 2.3878 7.48453 2.44099C6.72445 2.45125 5.97167 2.59128 5.25871 2.85507L5.25869 2.85503L5.2523 2.8575C4.70711 3.06775 4.212 3.38983 3.79882 3.80301C3.38564 4.21619 3.06356 4.7113 2.8533 5.25649L2.85326 5.25647L2.85088 5.2629C2.58711 5.97583 2.44707 6.72856 2.4368 7.48861C2.38307 8.66757 2.372 9.03372 2.372 12.0004C2.372 14.9674 2.3836 15.3333 2.4368 16.5121C2.44706 17.2722 2.58709 18.025 2.85088 18.7379L2.85084 18.7379L2.8533 18.7443C3.06356 19.2895 3.38564 19.7846 3.79882 20.1978C4.212 20.611 4.70711 20.9331 5.2523 21.1433L5.25228 21.1434L5.25871 21.1457C5.97162 21.4095 6.72433 21.5495 7.48436 21.5598C8.66284 21.6136 9.02897 21.6246 11.9962 21.6246C14.9637 21.6246 15.3296 21.613 16.5079 21.5598C17.268 21.5496 18.0208 21.4095 18.7337 21.1457L18.7337 21.1458L18.7401 21.1433C19.2853 20.9331 19.7804 20.611 20.1936 20.1978C20.6068 19.7846 20.9289 19.2895 21.1391 18.7443L21.1392 18.7443L21.1416 18.7379C21.4053 18.025 21.5454 17.2723 21.5556 16.5122C21.6094 15.3333 21.6204 14.9671 21.6204 12.0004C21.6204 9.03341 21.6088 8.66755 21.5556 7.48872C21.5454 6.72864 21.4053 5.97586 21.1416 5.2629L21.1416 5.26288L21.1391 5.25649C20.9289 4.7113 20.6068 4.21619 20.1936 3.80301L19.8401 4.15656L20.1936 3.80301C19.7804 3.38983 19.2853 3.06775 18.7401 2.8575ZM7.41782 1.43752L7.41782 1.43769L7.43062 1.43711C8.60631 1.38357 8.97789 1.37085 11.9962 1.37085C15.0145 1.37085 15.3863 1.38357 16.5612 1.43607L16.5612 1.43622L16.5736 1.43647C17.4406 1.45371 18.2985 1.61786 19.1106 1.92194C19.7849 2.17582 20.3957 2.57378 20.9003 3.08806L20.9002 3.08812L20.907 3.09477C21.4213 3.59943 21.8193 4.21025 22.0732 4.88461C22.3772 5.69672 22.5413 6.5545 22.5586 7.42148L22.5584 7.42149L22.559 7.43428C22.6125 8.60997 22.6252 8.98155 22.6252 11.9999C22.6252 15.0182 22.6125 15.39 22.56 16.5648L22.5599 16.5648L22.5596 16.5772C22.5424 17.4435 22.3785 18.3006 22.075 19.1121C21.8141 19.7854 21.4157 20.397 20.9052 20.9078C20.3948 21.4186 19.7835 21.8174 19.1104 22.0787C18.2989 22.3822 17.4419 22.5461 16.5757 22.5633L16.5757 22.5631L16.5629 22.5637C15.3872 22.6172 15.0172 22.63 11.9973 22.63C8.97777 22.63 8.6074 22.6162 7.43124 22.5637L7.43124 22.5635L7.41888 22.5633C6.5519 22.546 5.69412 22.3819 4.88201 22.0779C4.20765 21.824 3.59683 21.426 3.09217 20.9117L3.09223 20.9116L3.08545 20.905C2.57122 20.4004 2.17328 19.7897 1.91941 19.1155C1.61529 18.3033 1.45111 17.4454 1.43386 16.5783L1.43403 16.5783L1.43344 16.5655C1.37991 15.3898 1.36719 15.0182 1.36719 11.9999C1.36719 8.98159 1.37991 8.6098 1.4324 7.43492L1.43256 7.43493L1.4328 7.42254C1.45005 6.55554 1.61418 5.69774 1.91822 4.88562C2.17238 4.21125 2.57067 3.60049 3.0853 3.09598L3.08537 3.09605L3.09223 3.08906C3.59655 2.5749 4.20696 2.17694 4.8809 1.92294C5.69302 1.6189 6.55082 1.45477 7.41782 1.43752Z" fill="white" stroke="white"/>
<path d="M9.10287 7.66405C9.96048 7.09101 10.9687 6.78516 12.0002 6.78516C13.3833 6.78516 14.7098 7.33459 15.6878 8.3126C16.6658 9.29061 17.2152 10.6171 17.2152 12.0002C17.2152 13.0316 16.9093 14.0399 16.3363 14.8975C15.7633 15.7551 14.9488 16.4235 13.9959 16.8182C13.043 17.2129 11.9944 17.3162 10.9828 17.115C9.97117 16.9138 9.04194 16.4171 8.3126 15.6878C7.58327 14.9584 7.08659 14.0292 6.88536 13.0176C6.68414 12.006 6.78742 10.9574 7.18213 10.0045C7.57684 9.05156 8.24526 8.23708 9.10287 7.66405ZM9.66141 15.5004C10.3537 15.963 11.1676 16.2099 12.0002 16.2099C13.1167 16.2099 14.1874 15.7663 14.9769 14.9769C15.7663 14.1874 16.2099 13.1167 16.2099 12.0002C16.2099 11.1676 15.963 10.3537 15.5004 9.66141C15.0378 8.96913 14.3804 8.42956 13.6112 8.11094C12.8419 7.79232 11.9955 7.70896 11.1789 7.87139C10.3623 8.03382 9.61222 8.43475 9.02349 9.02349C8.43476 9.61222 8.03382 10.3623 7.87139 11.1789C7.70896 11.9955 7.79233 12.8419 8.11095 13.6112C8.42957 14.3804 8.96913 15.0378 9.66141 15.5004Z" fill="white" stroke="white"/>
<path d="M18.7725 6.05912C18.7725 6.52054 18.3985 6.8946 17.937 6.8946C17.4756 6.8946 17.1016 6.52054 17.1016 6.05912C17.1016 5.59769 17.4756 5.22363 17.937 5.22363C18.3985 5.22363 18.7725 5.59769 18.7725 6.05912Z" fill="white" stroke="white"/>
</svg>
