<svg width="23" height="21" viewBox="0 0 23 21" fill="none" xmlns="http://www.w3.org/2000/svg">
<path fill-rule="evenodd" clip-rule="evenodd" d="M16.7515 0C20.3138 0 23 2.90656 23 6.76093V14.1081C23 16.0807 22.3025 17.863 21.0348 19.1274C19.8977 20.2603 18.4225 20.8605 16.7686 20.8605H6.22819C4.57754 20.8605 3.1034 20.2614 1.96516 19.1274C0.697488 17.863 0 16.0807 0 14.1081V6.76093C0 2.90656 2.68619 0 6.24851 0H16.7515ZM16.7515 1.60465H6.24851C3.55805 1.60465 1.60465 3.77307 1.60465 6.76093V14.1081C1.60465 15.6518 2.13526 17.0307 3.09805 17.9903C3.92819 18.8193 5.01186 19.2558 6.2314 19.2558H16.7515C16.7536 19.2537 16.7622 19.2558 16.7686 19.2558C17.9892 19.2558 19.0718 18.8193 19.902 17.9903C20.8658 17.0307 21.3953 15.6518 21.3953 14.1081V6.76093C21.3953 3.77307 19.442 1.60465 16.7515 1.60465ZM18.4374 6.55639C18.7167 6.89979 18.6642 7.40472 18.3208 7.685L13.5668 11.549C12.9656 12.0261 12.2467 12.2647 11.5289 12.2647C10.8132 12.2647 10.0997 12.0283 9.50274 11.5554L4.70484 7.68713C4.3593 7.409 4.30581 6.903 4.58288 6.55853C4.86209 6.21513 5.36702 6.16058 5.71149 6.43765L10.5051 10.3016C11.1074 10.7788 11.9557 10.7788 12.5623 10.2974L17.3078 6.43979C17.6522 6.15844 18.1572 6.21193 18.4374 6.55639Z" fill="white"/>
</svg>
