<svg width="24" height="24" viewBox="0 0 24 24" fill="none" xmlns="http://www.w3.org/2000/svg">
<mask id="mask0_387_1024" style="mask-type:alpha" maskUnits="userSpaceOnUse" x="0" y="0" width="24" height="24">
<rect width="24" height="24" rx="1" fill="#D9D9D9"/>
</mask>
<g mask="url(#mask0_387_1024)">
<path d="M4 21C3.45 21 2.97917 20.8042 2.5875 20.4125C2.19583 20.0208 2 19.55 2 19V5C2 4.45 2.19583 3.97917 2.5875 3.5875C2.97917 3.19583 3.45 3 4 3H20C20.55 3 21.0208 3.19583 21.4125 3.5875C21.8042 3.97917 22 4.45 22 5V19C22 19.55 21.8042 20.0208 21.4125 20.4125C21.0208 20.8042 20.55 21 20 21H4ZM4 18C4 18.5523 4.44772 19 5 19H19C19.5523 19 20 18.5523 20 18V6C20 5.44772 19.5523 5 19 5H5C4.44772 5 4 5.44772 4 6V18ZM6 16C6 16.5523 6.44772 17 7 17H17C17.5523 17 18 16.5523 18 16C18 15.4477 17.5523 15 17 15H7C6.44771 15 6 15.4477 6 16ZM6 12C6 12.5523 6.44772 13 7 13H9C9.55228 13 10 12.5523 10 12V8C10 7.44772 9.55228 7 9 7H7C6.44772 7 6 7.44772 6 8V12ZM12 12C12 12.5523 12.4477 13 13 13H17C17.5523 13 18 12.5523 18 12C18 11.4477 17.5523 11 17 11H13C12.4477 11 12 11.4477 12 12ZM12 8C12 8.55228 12.4477 9 13 9H17C17.5523 9 18 8.55228 18 8C18 7.44772 17.5523 7 17 7H13C12.4477 7 12 7.44772 12 8Z" fill="#D25F5F"/>
</g>
</svg>
