<svg width="47" height="47" viewBox="0 0 47 47" fill="none" xmlns="http://www.w3.org/2000/svg">
<path d="M2.04248 15.0852C2.04248 7.9055 7.86278 2.08521 15.0425 2.08521H31.4881C38.6679 2.08521 44.4882 7.9055 44.4882 15.0852V31.5309C44.4882 38.7106 38.6679 44.5309 31.4882 44.5309H15.0425C7.86278 44.5309 2.04248 38.7106 2.04248 31.5309V15.0852Z" fill="url(#paint0_linear_392_5924)" fill-opacity="0.96" stroke="black" stroke-width="4" stroke-linejoin="round"/>
<ellipse cx="17.4595" cy="16.341" rx="9.86971" ry="9.28913" fill="#FFCA61"/>
<path fill-rule="evenodd" clip-rule="evenodd" d="M4.1757 37.8917L20.4089 21.3487L28.5236 28.2766L16.6815 43.3228L6.81926 41.9227L4.1757 37.8917Z" fill="#817CCA"/>
<path d="M37.8813 36.2657L41.7448 40.2234L40.181 41.9227L16.6815 43.3228L42.7873 40.2234L43.8299 26.6703L36.305 16.8231L28.5236 28.2766L37.8813 36.2657Z" fill="#817CCA"/>
<path d="M41.7448 40.2234L37.8813 36.2657L28.5236 28.2766L16.6815 43.3228L40.181 41.9227L41.7448 40.2234Z" fill="#817CCA"/>
<path d="M20.2315 24.7477L20.5235 21.3931L4.17472 38.0938L6.29798 42.376L13.5226 43.5607L17.1232 40.2221L15.1982 39.1801L21.5648 34.0479L17.7111 32.7384L21.5811 30.692L19.1085 28.8728L21.0473 27.0751L20.2315 24.7477Z" fill="#FFFDF8"/>
<path d="M35.689 21.2088L36.2618 16.8228L16.8324 43.3186L35.3027 43.9249L36.9645 42.384L35.3102 42.376L37.536 38.2563L32.5707 38.7484L37.006 33.865L34.2514 33.3352L35.645 30.2441L33.4393 30.2334L37.0475 25.3459L34.8443 24.8189L36.2367 21.9859L35.689 21.2088Z" fill="#FFFDF8"/>
<path d="M2.04248 15.0852C2.04248 7.9055 7.86278 2.08521 15.0425 2.08521H31.4881C38.6679 2.08521 44.4882 7.9055 44.4882 15.0852V31.5309C44.4882 38.7106 38.6679 44.5309 31.4882 44.5309H15.0425C7.86278 44.5309 2.04248 38.7106 2.04248 31.5309V15.0852Z" stroke="black" stroke-width="4" stroke-linejoin="round"/>
<defs>
<linearGradient id="paint0_linear_392_5924" x1="27.3293" y1="2.1172" x2="15.4276" y2="35.7903" gradientUnits="userSpaceOnUse">
<stop stop-color="#DC89B1" stop-opacity="0.9"/>
<stop offset="0.455" stop-color="#E67373"/>
<stop offset="1" stop-color="#F3BA86"/>
</linearGradient>
</defs>
</svg>
