<svg width="97" height="97" viewBox="0 0 97 97" fill="none" xmlns="http://www.w3.org/2000/svg">
<path fill-rule="evenodd" clip-rule="evenodd" d="M51.0721 65.6221L48.5 63.05L45.9279 65.6221C47.3484 67.0426 49.6515 67.0426 51.0721 65.6221ZM48.5 57.9058L17.1221 26.5279C15.7015 25.1074 13.3984 25.1074 11.9779 26.5279C10.5573 27.9484 10.5573 30.2516 11.9779 31.6721L45.9279 65.6221C45.928 65.6223 45.9279 65.6221 48.5 63.05C51.0721 65.6221 51.0719 65.6223 51.0721 65.6221L85.0221 31.6721C86.4426 30.2516 86.4426 27.9484 85.0221 26.5279C83.6016 25.1074 81.2984 25.1074 79.8779 26.5279L48.5 57.9058Z" fill="white"/>
<path d="M48.5 63.05L51.0721 65.6221M48.5 63.05L45.9279 65.6221M48.5 63.05C45.9279 65.6221 45.928 65.6223 45.9279 65.6221M48.5 63.05C51.0721 65.6221 51.0719 65.6223 51.0721 65.6221M51.0721 65.6221C49.6515 67.0426 47.3484 67.0426 45.9279 65.6221M51.0721 65.6221L85.0221 31.6721C86.4426 30.2516 86.4426 27.9484 85.0221 26.5279C83.6016 25.1074 81.2984 25.1074 79.8779 26.5279L48.5 57.9058L17.1221 26.5279C15.7015 25.1074 13.3984 25.1074 11.9779 26.5279C10.5573 27.9484 10.5573 30.2516 11.9779 31.6721L45.9279 65.6221" stroke="white" stroke-width="3" stroke-linecap="round" stroke-linejoin="round"/>
</svg>
