<svg width="24" height="24" viewBox="0 0 24 24" fill="none" xmlns="http://www.w3.org/2000/svg">
<mask id="mask0_387_958" style="mask-type:alpha" maskUnits="userSpaceOnUse" x="0" y="0" width="24" height="24">
<rect width="24" height="24" fill="#D9D9D9"/>
</mask>
<g mask="url(#mask0_387_958)">
<path d="M10 16C11.6667 16 13.0833 15.4167 14.25 14.25C15.4167 13.0833 16 11.6667 16 10C16 8.33333 15.4167 6.91667 14.25 5.75C13.0833 4.58333 11.6667 4 10 4C8.33333 4 6.91667 4.58333 5.75 5.75C4.58333 6.91667 4 8.33333 4 10C4 11.6667 4.58333 13.0833 5.75 14.25C6.91667 15.4167 8.33333 16 10 16ZM8.24133 12.8413C8.63247 13.2325 9.26683 13.2318 9.6571 12.8398L13.896 8.5821C14.2851 8.19133 14.2793 7.55425 13.8893 7.16434C13.498 6.773 12.8581 6.76879 12.4679 7.16128L9.65293 9.99291C9.26438 10.3838 8.63283 10.3866 8.24083 9.99917L7.52585 9.29261C7.13712 8.90845 6.51077 8.90872 6.12091 9.29173C5.72448 9.68121 5.72042 10.3204 6.11339 10.7134L8.24133 12.8413ZM10 18C7.76667 18 5.875 17.225 4.325 15.675C2.775 14.125 2 12.2333 2 10C2 7.76667 2.775 5.875 4.325 4.325C5.875 2.775 7.76667 2 10 2C12.2333 2 14.125 2.775 15.675 4.325C17.225 5.875 18 7.76667 18 10C18 10.9333 17.8542 11.8125 17.5625 12.6375C17.3713 13.1784 17.1281 13.6888 16.833 14.1688C16.5671 14.6014 16.5978 15.1689 16.9595 15.5253L20.788 19.2984C21.1804 19.685 21.1827 20.3173 20.7932 20.7068C20.409 21.091 19.7873 21.0948 19.3984 20.7153L15.5251 16.9351C15.1671 16.5856 14.6092 16.561 14.1835 16.8239C13.6993 17.1231 13.1839 17.3693 12.6375 17.5625C11.8125 17.8542 10.9333 18 10 18Z" fill="#D25F5F"/>
</g>
</svg>
