<?xml version="1.0" encoding="UTF-8"?>
<svg xmlns="http://www.w3.org/2000/svg" xmlns:xlink="http://www.w3.org/1999/xlink" width="25px" height="22px" viewBox="0 0 24 22" version="1.1">
<g id="surface1">
<path style=" stroke:none;fill-rule:evenodd;fill:rgb(100%,100%,100%);fill-opacity:1;" d="M 19.414062 2.683594 C 19.042969 2.605469 18.660156 2.621094 18.300781 2.730469 L 4.40625 6.976562 L 4.402344 6.976562 C 4.074219 7.078125 3.769531 7.257812 3.527344 7.503906 C 3.28125 7.75 3.101562 8.058594 3.011719 8.398438 C 2.921875 8.742188 2.933594 9.101562 3.035156 9.441406 C 3.140625 9.777344 3.332031 10.074219 3.589844 10.3125 L 6.90625 13.355469 L 6.796875 17.148438 C 6.789062 17.382812 6.898438 17.597656 7.085938 17.726562 C 7.273438 17.855469 7.511719 17.871094 7.71875 17.773438 L 10.355469 16.519531 L 12.859375 18.808594 C 13.113281 19.042969 13.425781 19.207031 13.761719 19.296875 C 14.09375 19.382812 14.445312 19.390625 14.785156 19.316406 C 15.121094 19.242188 15.441406 19.089844 15.707031 18.867188 C 15.972656 18.644531 16.179688 18.355469 16.300781 18.023438 L 20.929688 5.285156 C 21.0625 4.921875 21.082031 4.53125 20.984375 4.15625 C 20.890625 3.78125 20.683594 3.449219 20.402344 3.191406 C 20.378906 3.167969 20.351562 3.144531 20.324219 3.121094 C 20.3125 3.113281 20.304688 3.105469 20.292969 3.097656 C 20.035156 2.894531 19.734375 2.753906 19.414062 2.683594 Z M 18.105469 4.179688 L 4.777344 8.253906 C 4.636719 8.296875 4.519531 8.367188 4.433594 8.457031 C 4.34375 8.542969 4.292969 8.644531 4.265625 8.742188 C 4.242188 8.839844 4.242188 8.9375 4.273438 9.035156 C 4.304688 9.136719 4.363281 9.234375 4.457031 9.320312 L 7.601562 12.207031 Z M 8.203125 13.410156 L 8.125 16.113281 L 10.195312 15.125 C 10.429688 15.011719 10.707031 15.054688 10.902344 15.230469 L 13.722656 17.8125 C 13.816406 17.898438 13.9375 17.964844 14.078125 18.003906 C 14.222656 18.039062 14.371094 18.042969 14.515625 18.011719 C 14.660156 17.980469 14.789062 17.917969 14.886719 17.835938 C 14.984375 17.753906 15.050781 17.65625 15.085938 17.554688 L 19.714844 4.820312 L 19.714844 4.816406 C 19.742188 4.742188 19.753906 4.664062 19.746094 4.585938 Z M 8.203125 13.410156 "/>
</g>
</svg>
