<?xml version="1.0" encoding="UTF-8"?>
<svg xmlns="http://www.w3.org/2000/svg" xmlns:xlink="http://www.w3.org/1999/xlink" width="25px" height="25px" viewBox="0 0 25 25" version="1.1">
<g id="surface1">
<path style=" stroke:none;fill-rule:nonzero;fill:rgb(0%,53.333333%,80%);fill-opacity:1;" d="M 25 12.5 C 25 19.402344 19.402344 25 12.5 25 C 5.597656 25 0 19.402344 0 12.5 C 0 5.597656 5.597656 0 12.5 0 C 19.402344 0 25 5.597656 25 12.5 Z M 25 12.5 "/>
<path style=" stroke:none;fill-rule:evenodd;fill:rgb(100%,100%,100%);fill-opacity:1;" d="M 9.023438 8.261719 L 16.03125 8.261719 C 16.28125 8.261719 16.527344 8.296875 16.789062 8.417969 C 17.097656 8.5625 17.261719 8.789062 17.378906 8.960938 C 17.386719 8.972656 17.394531 8.984375 17.402344 9 C 17.539062 9.242188 17.609375 9.503906 17.609375 9.78125 C 17.609375 10.050781 17.546875 10.339844 17.402344 10.59375 C 17.402344 10.59375 17.402344 10.597656 17.398438 10.597656 L 12.96875 18.207031 C 12.871094 18.375 12.691406 18.480469 12.5 18.476562 C 12.304688 18.476562 12.125 18.375 12.027344 18.203125 L 7.679688 10.613281 C 7.679688 10.609375 7.679688 10.609375 7.675781 10.605469 C 7.578125 10.441406 7.421875 10.1875 7.394531 9.863281 C 7.371094 9.558594 7.4375 9.257812 7.589844 8.996094 C 7.742188 8.734375 7.96875 8.527344 8.242188 8.398438 C 8.535156 8.261719 8.835938 8.261719 9.023438 8.261719 Z M 11.957031 9.347656 L 9.023438 9.347656 C 8.828125 9.347656 8.753906 9.359375 8.703125 9.382812 C 8.632812 9.417969 8.570312 9.472656 8.53125 9.542969 C 8.492188 9.609375 8.472656 9.691406 8.480469 9.773438 C 8.484375 9.820312 8.503906 9.871094 8.613281 10.054688 C 8.617188 10.058594 8.617188 10.0625 8.621094 10.066406 L 11.957031 15.890625 Z M 13.042969 9.347656 L 13.042969 15.921875 L 16.457031 10.058594 C 16.496094 9.988281 16.523438 9.886719 16.523438 9.78125 C 16.523438 9.699219 16.503906 9.625 16.464844 9.550781 C 16.425781 9.492188 16.398438 9.460938 16.378906 9.441406 C 16.363281 9.421875 16.347656 9.414062 16.328125 9.402344 C 16.246094 9.367188 16.164062 9.347656 16.03125 9.347656 Z M 13.042969 9.347656 "/>
</g>
</svg>
