<svg width="22" height="22" viewBox="0 0 22 22" fill="none" xmlns="http://www.w3.org/2000/svg">
<mask id="mask0_387_927" style="mask-type:alpha" maskUnits="userSpaceOnUse" x="0" y="0" width="22" height="22">
<rect width="22" height="22" fill="#D9D9D9"/>
</mask>
<g mask="url(#mask0_387_927)">
<path d="M11.0046 20.6554C9.66212 20.6554 8.40269 20.4034 7.2263 19.8992C6.04992 19.395 5.02508 18.7063 4.1518 17.833C3.27837 16.9596 2.5921 15.9324 2.09297 14.7514C1.594 13.5704 1.34451 12.3074 1.34451 10.9621C1.34451 9.62764 1.594 8.37218 2.09297 7.1958C2.5921 6.01941 3.27837 4.99961 4.1518 4.13642C5.02508 3.27323 6.04969 2.59207 7.22562 2.09294C8.40139 1.59397 9.66189 1.34448 11.0071 1.34448C12.3418 1.34448 13.5973 1.59397 14.7737 2.09294C15.9501 2.59207 16.9749 3.27323 17.8482 4.13642C18.7216 4.99961 19.4079 6.02009 19.907 7.19786C20.406 8.37562 20.6555 9.63283 20.6555 10.9695C20.6555 12.3129 20.406 13.5743 19.907 14.7537C19.4079 15.9332 18.7216 16.9596 17.8482 17.833C16.9749 18.7063 15.9489 19.395 14.7702 19.8992C13.5916 20.4034 12.3363 20.6554 11.0046 20.6554ZM10.6449 18.2779C10.8243 18.5206 11.1797 18.5241 11.3629 18.2843C11.6844 17.8636 11.9632 17.4051 12.1992 16.9086C12.4402 16.4017 12.6511 15.8453 12.8317 15.2392C12.9248 14.9272 12.6856 14.6208 12.36 14.6208H9.65525C9.32963 14.6208 9.09052 14.9273 9.18481 15.239C9.35938 15.816 9.56768 16.3606 9.8097 16.8728C10.0503 17.3818 10.3287 17.8501 10.6449 18.2779ZM7.42391 17.8264C7.84776 18.0402 8.26729 17.5475 8.0756 17.1132C8.01339 16.9723 7.95373 16.8286 7.89662 16.6821C7.69789 16.1726 7.52308 15.6153 7.37218 15.01C7.31561 14.7831 7.11381 14.6208 6.87998 14.6208H4.98338C4.60542 14.6208 4.36694 15.0231 4.57662 15.3376C4.99036 15.9581 5.46491 16.4852 6.00026 16.9186C6.41467 17.2541 6.88922 17.5567 7.42391 17.8264ZM13.9187 17.1459C13.7269 17.5738 14.1277 18.0504 14.5429 17.8324C15.0281 17.5777 15.4882 17.2736 15.9232 16.92C16.4982 16.4528 16.9941 15.9266 17.4108 15.3415C17.6324 15.0303 17.3959 14.6208 17.0138 14.6208H15.1464C14.9155 14.6208 14.7153 14.7792 14.6564 15.0024C14.499 15.599 14.3204 16.1529 14.1206 16.6643C14.0564 16.8283 13.9891 16.9888 13.9187 17.1459ZM3.42638 12.5801C3.47647 12.7955 3.67363 12.9403 3.89477 12.9403H6.39864C6.69729 12.9403 6.92831 12.6802 6.90554 12.3824C6.89364 12.2269 6.88476 12.0754 6.87889 11.9281C6.86606 11.6098 6.85964 11.2903 6.85964 10.9695C6.85964 10.6079 6.86857 10.2781 6.88645 9.98017C6.89376 9.85828 6.90298 9.73405 6.91411 9.60748C6.94043 9.30794 6.70869 9.04448 6.40799 9.04448H3.89472C3.67361 9.04448 3.4765 9.18922 3.42566 9.40442C3.3794 9.60025 3.34515 9.78965 3.32291 9.97261C3.28731 10.2653 3.26951 10.5976 3.26951 10.9695C3.26951 11.3412 3.28731 11.6811 3.32291 11.9893C3.34526 12.1827 3.37975 12.3796 3.42638 12.5801ZM8.62248 12.5099C8.65121 12.7572 8.86335 12.9403 9.11235 12.9403H12.9031C13.1523 12.9403 13.3645 12.757 13.393 12.5095C13.4188 12.2864 13.4372 12.0825 13.4482 11.8976C13.4661 11.5997 13.475 11.2903 13.475 10.9695C13.475 10.6587 13.4661 10.3595 13.4482 10.0718C13.4372 9.89383 13.4188 9.69486 13.3931 9.47491C13.3641 9.2276 13.152 9.04448 12.903 9.04448H9.11223C8.86308 9.04448 8.65089 9.22781 8.622 9.47527C8.59634 9.69508 8.57798 9.89393 8.56693 10.0718C8.54921 10.3595 8.54035 10.6587 8.54035 10.9695C8.54035 11.2903 8.54921 11.5997 8.56693 11.8976C8.57803 12.0826 8.59654 12.2866 8.62248 12.5099ZM15.0832 12.4009C15.0605 12.6917 15.2903 12.9403 15.5819 12.9403H18.1092C18.3359 12.9403 18.5362 12.7882 18.5828 12.5663C18.6238 12.3706 18.6552 12.1782 18.6771 11.9893C18.7127 11.6811 18.7305 11.3412 18.7305 10.9695C18.7305 10.5976 18.7127 10.2653 18.6771 9.97261C18.6554 9.79397 18.6242 9.6092 18.5835 9.41829C18.5362 9.1966 18.336 9.04448 18.1093 9.04448H15.5915C15.302 9.04448 15.073 9.28967 15.0922 9.57856C15.1065 9.79329 15.1187 9.98154 15.1289 10.1433C15.1466 10.4277 15.1555 10.703 15.1555 10.9695C15.1555 11.3004 15.144 11.6148 15.1211 11.9127C15.1095 12.064 15.0968 12.2267 15.0832 12.4009ZM14.6435 6.97777C14.701 7.20314 14.9021 7.36377 15.1347 7.36377H17.0484C17.4225 7.36377 17.6607 6.96903 17.4546 6.65681C17.0428 6.03299 16.5426 5.48184 15.9539 5.00336C15.4939 4.62962 15.0009 4.31615 14.4748 4.06293C14.0605 3.86351 13.6818 4.33492 13.8747 4.75236C13.9555 4.92747 14.0324 5.10663 14.1052 5.28982C14.3061 5.79543 14.4855 6.35808 14.6435 6.97777ZM9.19743 6.73372C9.09997 7.04918 9.33984 7.36377 9.67002 7.36377H12.3833C12.7064 7.36377 12.9449 7.06168 12.8498 6.7529C12.6904 6.23506 12.4863 5.72139 12.2375 5.2119C11.9812 4.68708 11.6888 4.18777 11.3601 3.71397C11.1805 3.45511 10.8068 3.44495 10.621 3.69937C10.3419 4.08148 10.094 4.49834 9.87708 4.94996C9.63687 5.45011 9.41032 6.0447 9.19743 6.73372ZM4.54975 6.65972C4.34802 6.97248 4.58675 7.36377 4.95892 7.36377H6.88836C7.12401 7.36377 7.32682 7.19899 7.38191 6.96987C7.52359 6.38064 7.68943 5.8385 7.87943 5.34344C7.95645 5.14288 8.03952 4.94528 8.12862 4.75063C8.31876 4.33528 7.94344 3.87014 7.53055 4.06553C7.00023 4.3165 6.50541 4.62659 6.0461 4.9958C5.4602 5.46684 4.96142 6.02148 4.54975 6.65972Z" fill="#D25F5F"/>
</g>
</svg>
